<svg width="41" height="41" viewBox="0 0 41 41" fill="none" xmlns="http://www.w3.org/2000/svg">
<path d="M4.41761 22.521C4.16383 22.521 3.94508 22.4609 3.76136 22.3406C3.57765 22.2194 3.43608 22.0457 3.33665 21.8193C3.23722 21.5921 3.18797 21.3189 3.18892 20.9997C3.18987 20.6806 3.23958 20.4098 3.33807 20.1872C3.4375 19.9637 3.5786 19.7938 3.76136 19.6773C3.94508 19.5599 4.16383 19.5011 4.41761 19.5011C4.6714 19.5011 4.89015 19.5599 5.07386 19.6773C5.25852 19.7938 5.40057 19.9637 5.5 20.1872C5.59943 20.4107 5.64867 20.6815 5.64773 20.9997C5.64773 21.3198 5.59801 21.5935 5.49858 21.8208C5.39915 22.048 5.25758 22.2218 5.07386 22.3421C4.8911 22.4614 4.67235 22.521 4.41761 22.521ZM4.41761 21.9458C4.56913 21.9458 4.69176 21.8686 4.78551 21.7142C4.87926 21.5589 4.92566 21.3208 4.92472 20.9997C4.92472 20.7895 4.90341 20.6162 4.8608 20.4798C4.81818 20.3425 4.759 20.2403 4.68324 20.173C4.60748 20.1058 4.51894 20.0722 4.41761 20.0722C4.26705 20.0722 4.14536 20.1484 4.05256 20.3009C3.95975 20.4524 3.91288 20.6853 3.91193 20.9997C3.91098 21.2128 3.93134 21.3894 3.97301 21.5296C4.01563 21.6697 4.07528 21.7743 4.15199 21.8435C4.22869 21.9117 4.31723 21.9458 4.41761 21.9458ZM6.64702 20.2682L7.00639 20.9869L7.37855 20.2682H8.07884L7.46946 21.3591L8.10156 22.45H7.40696L7.00639 21.7256L6.61577 22.45H5.91122L6.54474 21.3591L5.94247 20.2682H6.64702ZM10.3008 20.9344L9.663 20.9514C9.65637 20.906 9.63838 20.8657 9.60902 20.8307C9.57966 20.7947 9.54131 20.7668 9.49396 20.7469C9.44756 20.7261 9.39358 20.7156 9.33203 20.7156C9.25154 20.7156 9.18288 20.7317 9.12607 20.7639C9.07019 20.7961 9.04273 20.8397 9.04368 20.8946C9.04273 20.9372 9.05978 20.9742 9.09482 21.0054C9.1308 21.0367 9.19472 21.0618 9.28658 21.0807L9.70703 21.1602C9.92483 21.2019 10.0868 21.271 10.1928 21.3676C10.2998 21.4642 10.3538 21.5921 10.3548 21.7511C10.3538 21.9008 10.3093 22.031 10.2212 22.1418C10.1341 22.2526 10.0148 22.3387 9.86328 22.4003C9.71177 22.4609 9.53847 22.4912 9.34339 22.4912C9.03184 22.4912 8.7861 22.4273 8.60618 22.2994C8.4272 22.1707 8.32493 21.9983 8.29936 21.7824L8.98544 21.7654C9.00059 21.8449 9.03989 21.9055 9.10334 21.9472C9.16679 21.9888 9.24775 22.0097 9.34624 22.0097C9.43525 22.0097 9.50769 21.9931 9.56357 21.96C9.61944 21.9268 9.64785 21.8828 9.64879 21.8279C9.64785 21.7786 9.62607 21.7393 9.58345 21.71C9.54084 21.6797 9.47408 21.656 9.38317 21.6389L9.00249 21.5665C8.78374 21.5267 8.62086 21.4533 8.51385 21.3463C8.40684 21.2384 8.35381 21.1011 8.35476 20.9344C8.35381 20.7886 8.39264 20.664 8.47124 20.5608C8.54983 20.4566 8.66158 20.3771 8.80646 20.3222C8.95135 20.2672 9.12228 20.2398 9.31925 20.2398C9.6147 20.2398 9.84766 20.3018 10.0181 20.4259C10.1886 20.549 10.2828 20.7185 10.3008 20.9344ZM11.4936 22.4813C11.3326 22.4813 11.1863 22.4396 11.0547 22.3563C10.9231 22.2729 10.8179 22.1479 10.7393 21.9813C10.6607 21.8146 10.6214 21.6077 10.6214 21.3605C10.6214 21.1039 10.6622 20.8927 10.7436 20.727C10.825 20.5613 10.9316 20.4386 11.0632 20.3591C11.1958 20.2796 11.3383 20.2398 11.4908 20.2398C11.6054 20.2398 11.7034 20.2597 11.7848 20.2994C11.8662 20.3383 11.9335 20.3885 11.9865 20.45C12.0395 20.5116 12.0798 20.5755 12.1072 20.6418H12.1214V19.5409H12.8161V22.45H12.1286V22.0963H12.1072C12.0779 22.1636 12.0362 22.2265 11.9822 22.2852C11.9283 22.344 11.8606 22.3913 11.7791 22.4273C11.6986 22.4633 11.6035 22.4813 11.4936 22.4813ZM11.7351 21.9401C11.8194 21.9401 11.8913 21.9164 11.951 21.869C12.0107 21.8208 12.0566 21.753 12.0888 21.6659C12.121 21.5788 12.1371 21.4765 12.1371 21.3591C12.1371 21.2398 12.121 21.137 12.0888 21.0509C12.0575 20.9647 12.0116 20.8984 11.951 20.852C11.8913 20.8056 11.8194 20.7824 11.7351 20.7824C11.6489 20.7824 11.576 20.8061 11.5163 20.8534C11.4567 20.9008 11.4112 20.9675 11.38 21.0537C11.3497 21.1399 11.3345 21.2417 11.3345 21.3591C11.3345 21.4765 11.3501 21.5788 11.3814 21.6659C11.4126 21.753 11.4576 21.8208 11.5163 21.869C11.576 21.9164 11.6489 21.9401 11.7351 21.9401ZM14.4954 20.2682V20.7796H13.092V20.2682H14.4954ZM13.3846 22.45V20.1574C13.3846 19.9888 13.4163 19.8492 13.4798 19.7384C13.5432 19.6266 13.6313 19.5433 13.744 19.4884C13.8567 19.4325 13.9869 19.4046 14.1346 19.4046C14.2312 19.4046 14.3221 19.4121 14.4073 19.4273C14.4935 19.4415 14.5574 19.4543 14.5991 19.4656L14.4883 19.9742C14.4627 19.9656 14.4315 19.9585 14.3945 19.9529C14.3585 19.9472 14.3245 19.9443 14.2923 19.9443C14.2108 19.9443 14.1549 19.9623 14.1246 19.9983C14.0943 20.0343 14.0792 20.0835 14.0792 20.146V22.45H13.3846ZM15.3587 22.4869C15.2195 22.4869 15.0959 22.4637 14.9879 22.4173C14.8809 22.37 14.7962 22.299 14.7337 22.2043C14.6721 22.1086 14.6413 21.9888 14.6413 21.8449C14.6413 21.7237 14.6626 21.6214 14.7053 21.5381C14.7479 21.4547 14.8066 21.387 14.8814 21.335C14.9562 21.2829 15.0424 21.2436 15.1399 21.2171C15.2375 21.1896 15.3416 21.1711 15.4524 21.1617C15.5765 21.1503 15.6764 21.1385 15.7521 21.1261C15.8279 21.1129 15.8828 21.0944 15.9169 21.0708C15.9519 21.0461 15.9695 21.0116 15.9695 20.9671V20.96C15.9695 20.887 15.9444 20.8307 15.8942 20.7909C15.844 20.7511 15.7763 20.7313 15.6911 20.7313C15.5992 20.7313 15.5253 20.7511 15.4695 20.7909C15.4136 20.8307 15.3781 20.8856 15.3629 20.9557L14.7223 20.933C14.7412 20.8004 14.79 20.682 14.8686 20.5779C14.9482 20.4727 15.0571 20.3904 15.1953 20.3307C15.3345 20.2701 15.5017 20.2398 15.6967 20.2398C15.8359 20.2398 15.9643 20.2564 16.0817 20.2895C16.1991 20.3217 16.3014 20.369 16.3885 20.4315C16.4756 20.4931 16.5429 20.5689 16.5902 20.6588C16.6385 20.7488 16.6626 20.8515 16.6626 20.9671V22.45H16.0092V22.146H15.9922C15.9534 22.2199 15.9036 22.2824 15.843 22.3335C15.7834 22.3847 15.7128 22.423 15.6314 22.4486C15.5509 22.4742 15.46 22.4869 15.3587 22.4869ZM15.5732 22.0324C15.648 22.0324 15.7152 22.0172 15.7749 21.9869C15.8355 21.9566 15.8838 21.915 15.9197 21.8619C15.9557 21.808 15.9737 21.7455 15.9737 21.6744V21.4671C15.9538 21.4775 15.9297 21.4869 15.9013 21.4955C15.8738 21.504 15.8435 21.512 15.8104 21.5196C15.7772 21.5272 15.7431 21.5338 15.7081 21.5395C15.6731 21.5452 15.6394 21.5504 15.6072 21.5551C15.5419 21.5655 15.486 21.5816 15.4396 21.6034C15.3942 21.6252 15.3591 21.6536 15.3345 21.6886C15.3108 21.7227 15.299 21.7635 15.299 21.8108C15.299 21.8828 15.3246 21.9377 15.3757 21.9756C15.4278 22.0135 15.4936 22.0324 15.5732 22.0324ZM18.9922 20.9344L18.3544 20.9514C18.3478 20.906 18.3298 20.8657 18.3004 20.8307C18.2711 20.7947 18.2327 20.7668 18.1854 20.7469C18.139 20.7261 18.085 20.7156 18.0234 20.7156C17.9429 20.7156 17.8743 20.7317 17.8175 20.7639C17.7616 20.7961 17.7341 20.8397 17.7351 20.8946C17.7341 20.9372 17.7512 20.9742 17.7862 21.0054C17.8222 21.0367 17.8861 21.0618 17.978 21.0807L18.3984 21.1602C18.6162 21.2019 18.7782 21.271 18.8842 21.3676C18.9912 21.4642 19.0452 21.5921 19.0462 21.7511C19.0452 21.9008 19.0007 22.031 18.9126 22.1418C18.8255 22.2526 18.7062 22.3387 18.5547 22.4003C18.4032 22.4609 18.2299 22.4912 18.0348 22.4912C17.7232 22.4912 17.4775 22.4273 17.2976 22.2994C17.1186 22.1707 17.0163 21.9983 16.9908 21.7824L17.6768 21.7654C17.692 21.8449 17.7313 21.9055 17.7947 21.9472C17.8582 21.9888 17.9392 22.0097 18.0376 22.0097C18.1267 22.0097 18.1991 21.9931 18.255 21.96C18.3108 21.9268 18.3393 21.8828 18.3402 21.8279C18.3393 21.7786 18.3175 21.7393 18.2749 21.71C18.2322 21.6797 18.1655 21.656 18.0746 21.6389L17.6939 21.5665C17.4751 21.5267 17.3123 21.4533 17.2053 21.3463C17.0982 21.2384 17.0452 21.1011 17.0462 20.9344C17.0452 20.7886 17.084 20.664 17.1626 20.5608C17.2412 20.4566 17.353 20.3771 17.4979 20.3222C17.6428 20.2672 17.8137 20.2398 18.0107 20.2398C18.3061 20.2398 18.5391 20.3018 18.7095 20.4259C18.88 20.549 18.9742 20.7185 18.9922 20.9344ZM20.0827 21.2057V22.45H19.3881V19.5409H20.06V20.6688H20.0842C20.1334 20.5343 20.2139 20.4292 20.3256 20.3534C20.4383 20.2777 20.5761 20.2398 20.739 20.2398C20.8924 20.2398 21.0259 20.2739 21.1396 20.3421C21.2532 20.4093 21.3413 20.5045 21.4038 20.6276C21.4672 20.7507 21.4985 20.8946 21.4975 21.0594V22.45H20.8029V21.1958C20.8039 21.0745 20.7736 20.9798 20.712 20.9117C20.6504 20.8435 20.5638 20.8094 20.4521 20.8094C20.3791 20.8094 20.3147 20.8255 20.2589 20.8577C20.204 20.8889 20.1609 20.9339 20.1296 20.9926C20.0993 21.0513 20.0837 21.1224 20.0827 21.2057ZM23.1712 20.2682V20.7796H21.7678V20.2682H23.1712ZM22.0604 22.45V20.1574C22.0604 19.9888 22.0921 19.8492 22.1555 19.7384C22.219 19.6266 22.3071 19.5433 22.4197 19.4884C22.5324 19.4325 22.6626 19.4046 22.8104 19.4046C22.907 19.4046 22.9979 19.4121 23.0831 19.4273C23.1693 19.4415 23.2332 19.4543 23.2749 19.4656L23.1641 19.9742C23.1385 19.9656 23.1072 19.9585 23.0703 19.9529C23.0343 19.9472 23.0002 19.9443 22.968 19.9443C22.8866 19.9443 22.8307 19.9623 22.8004 19.9983C22.7701 20.0343 22.755 20.0835 22.755 20.146V22.45H22.0604ZM24.6062 22.4898C24.3846 22.4898 24.1881 22.4519 24.0167 22.3761C23.8462 22.2994 23.7118 22.1939 23.6133 22.0594C23.5148 21.9249 23.4646 21.7701 23.4627 21.5949H24.1701C24.1729 21.6583 24.1933 21.7147 24.2312 21.7639C24.2691 21.8122 24.3207 21.8501 24.386 21.8776C24.4513 21.905 24.5257 21.9188 24.609 21.9188C24.6924 21.9188 24.7657 21.9041 24.8292 21.8747C24.8936 21.8444 24.9438 21.8032 24.9798 21.7511C25.0157 21.6981 25.0333 21.6375 25.0323 21.5693C25.0333 21.5011 25.0138 21.4405 24.9741 21.3875C24.9343 21.3345 24.878 21.2933 24.805 21.2639C24.7331 21.2346 24.6478 21.2199 24.5494 21.2199H24.2667V20.7199H24.5494C24.6355 20.7199 24.7113 20.7057 24.7766 20.6773C24.8429 20.6489 24.8945 20.6091 24.9315 20.558C24.9684 20.5059 24.9864 20.4462 24.9854 20.379C24.9864 20.3136 24.9708 20.2564 24.9386 20.2071C24.9073 20.1569 24.8633 20.1181 24.8065 20.0906C24.7506 20.0632 24.6857 20.0494 24.6119 20.0494C24.5342 20.0494 24.4637 20.0632 24.4002 20.0906C24.3377 20.1181 24.288 20.1569 24.2511 20.2071C24.2141 20.2573 24.1947 20.3155 24.1928 20.3818H23.521C23.5228 20.2085 23.5711 20.0561 23.6658 19.9244C23.7605 19.7919 23.8893 19.6882 24.0522 19.6134C24.216 19.5386 24.4026 19.5011 24.6119 19.5011C24.8202 19.5011 25.0034 19.5376 25.1616 19.6105C25.3197 19.6834 25.4428 19.7829 25.5309 19.9088C25.619 20.0338 25.663 20.1754 25.663 20.3335C25.6639 20.4974 25.6104 20.6323 25.5025 20.7384C25.3955 20.8444 25.2577 20.9098 25.0891 20.9344V20.9571C25.3145 20.9836 25.4845 21.0565 25.5991 21.1759C25.7146 21.2952 25.7719 21.4443 25.771 21.6233C25.771 21.7919 25.7212 21.9415 25.6218 22.0722C25.5233 22.2019 25.386 22.3042 25.2099 22.379C25.0347 22.4529 24.8335 22.4898 24.6062 22.4898ZM3.17898 26.9671V26.4188L4.37074 24.5409H4.85795V25.2852H4.57528L3.87784 26.3904V26.4131H5.60369V26.9671H3.17898ZM4.58381 27.45V26.7994L4.59801 26.5594V24.5409H5.25568V27.45H4.58381ZM7.88281 25.9344L7.24503 25.9514C7.2384 25.906 7.22041 25.8657 7.19105 25.8307C7.1617 25.7947 7.12334 25.7668 7.07599 25.7469C7.02959 25.7261 6.97562 25.7156 6.91406 25.7156C6.83357 25.7156 6.76491 25.7317 6.7081 25.7639C6.65223 25.7961 6.62476 25.8397 6.62571 25.8946C6.62476 25.9372 6.64181 25.9742 6.67685 26.0054C6.71283 26.0367 6.77675 26.0618 6.86861 26.0807L7.28906 26.1602C7.50687 26.2019 7.6688 26.271 7.77486 26.3676C7.88187 26.4642 7.93584 26.5921 7.93679 26.7511C7.93584 26.9008 7.89134 27.031 7.80327 27.1418C7.71615 27.2526 7.59683 27.3387 7.44531 27.4003C7.2938 27.4609 7.1205 27.4912 6.92543 27.4912C6.61387 27.4912 6.36813 27.4273 6.18821 27.2994C6.00923 27.1707 5.90696 26.9983 5.88139 26.7824L6.56747 26.7654C6.58262 26.8449 6.62192 26.9055 6.68537 26.9472C6.74882 26.9888 6.82978 27.0097 6.92827 27.0097C7.01728 27.0097 7.08973 26.9931 7.1456 26.96C7.20147 26.9268 7.22988 26.8828 7.23082 26.8279C7.22988 26.7786 7.2081 26.7393 7.16548 26.71C7.12287 26.6797 7.05611 26.656 6.9652 26.6389L6.58452 26.5665C6.36577 26.5267 6.20289 26.4533 6.09588 26.3463C5.98887 26.2384 5.93584 26.1011 5.93679 25.9344C5.93584 25.7886 5.97467 25.664 6.05327 25.5608C6.13187 25.4566 6.24361 25.3771 6.38849 25.3222C6.53338 25.2672 6.70431 25.2398 6.90128 25.2398C7.19673 25.2398 7.42969 25.3018 7.60014 25.4259C7.7706 25.549 7.86482 25.7185 7.88281 25.9344ZM8.89382 27.4869C8.75462 27.4869 8.63104 27.4637 8.52308 27.4173C8.41607 27.37 8.33132 27.299 8.26882 27.2043C8.20727 27.1086 8.17649 26.9888 8.17649 26.8449C8.17649 26.7237 8.1978 26.6214 8.24041 26.5381C8.28303 26.4547 8.34174 26.387 8.41655 26.335C8.49136 26.2829 8.57753 26.2436 8.67507 26.2171C8.77261 26.1896 8.87678 26.1711 8.98757 26.1617C9.11162 26.1503 9.21153 26.1385 9.28729 26.1261C9.36304 26.1129 9.41797 26.0944 9.45206 26.0708C9.4871 26.0461 9.50462 26.0116 9.50462 25.9671V25.96C9.50462 25.887 9.47952 25.8307 9.42933 25.7909C9.37914 25.7511 9.31143 25.7313 9.22621 25.7313C9.13435 25.7313 9.06049 25.7511 9.00462 25.7909C8.94875 25.8307 8.91323 25.8856 8.89808 25.9557L8.25746 25.933C8.2764 25.8004 8.32517 25.682 8.40376 25.5779C8.48331 25.4727 8.59221 25.3904 8.73047 25.3307C8.86967 25.2701 9.03681 25.2398 9.23189 25.2398C9.37109 25.2398 9.49941 25.2564 9.61683 25.2895C9.73426 25.3217 9.83653 25.369 9.92365 25.4315C10.0108 25.4931 10.078 25.5689 10.1254 25.6588C10.1737 25.7488 10.1978 25.8515 10.1978 25.9671V27.45H9.54439V27.146H9.52734C9.48852 27.2199 9.4388 27.2824 9.3782 27.3335C9.31854 27.3847 9.24799 27.423 9.16655 27.4486C9.08606 27.4742 8.99515 27.4869 8.89382 27.4869ZM9.10831 27.0324C9.18312 27.0324 9.25036 27.0172 9.31001 26.9869C9.37062 26.9566 9.41892 26.915 9.4549 26.8619C9.49089 26.808 9.50888 26.7455 9.50888 26.6744V26.4671C9.48899 26.4775 9.46484 26.4869 9.43643 26.4955C9.40897 26.504 9.37867 26.512 9.34553 26.5196C9.31238 26.5272 9.27829 26.5338 9.24325 26.5395C9.20821 26.5452 9.1746 26.5504 9.1424 26.5551C9.07706 26.5655 9.02119 26.5816 8.97479 26.6034C8.92933 26.6252 8.89429 26.6536 8.86967 26.6886C8.846 26.7227 8.83416 26.7635 8.83416 26.8108C8.83416 26.8828 8.85973 26.9377 8.91087 26.9756C8.96295 27.0135 9.02876 27.0324 9.10831 27.0324ZM11.2489 26.8776L11.2518 26.0494H11.3484L11.962 25.2682H12.7489L11.837 26.3875H11.6538L11.2489 26.8776ZM10.6225 27.45V24.5409H11.3171V27.45H10.6225ZM11.9776 27.45L11.4066 26.5438L11.864 26.0509L12.7802 27.45H11.9776ZM13.7045 27.4813C13.5436 27.4813 13.3973 27.4396 13.2656 27.3563C13.134 27.2729 13.0289 27.1479 12.9503 26.9813C12.8717 26.8146 12.8324 26.6077 12.8324 26.3605C12.8324 26.1039 12.8731 25.8927 12.9545 25.727C13.036 25.5613 13.1425 25.4386 13.2741 25.3591C13.4067 25.2796 13.5492 25.2398 13.7017 25.2398C13.8163 25.2398 13.9143 25.2597 13.9957 25.2994C14.0772 25.3383 14.1444 25.3885 14.1974 25.45C14.2505 25.5116 14.2907 25.5755 14.3182 25.6418H14.3324V24.5409H15.027V27.45H14.3395V27.0963H14.3182C14.2888 27.1636 14.2472 27.2265 14.1932 27.2852C14.1392 27.344 14.0715 27.3913 13.9901 27.4273C13.9096 27.4633 13.8144 27.4813 13.7045 27.4813ZM13.946 26.9401C14.0303 26.9401 14.1023 26.9164 14.1619 26.869C14.2216 26.8208 14.2675 26.753 14.2997 26.6659C14.3319 26.5788 14.348 26.4765 14.348 26.3591C14.348 26.2398 14.3319 26.137 14.2997 26.0509C14.2685 25.9647 14.2225 25.8984 14.1619 25.852C14.1023 25.8056 14.0303 25.7824 13.946 25.7824C13.8598 25.7824 13.7869 25.8061 13.7273 25.8534C13.6676 25.9008 13.6222 25.9675 13.5909 26.0537C13.5606 26.1399 13.5455 26.2417 13.5455 26.3591C13.5455 26.4765 13.5611 26.5788 13.5923 26.6659C13.6236 26.753 13.6686 26.8208 13.7273 26.869C13.7869 26.9164 13.8598 26.9401 13.946 26.9401ZM15.4251 26.9671V26.4188L16.6168 24.5409H17.104V25.2852H16.8214L16.1239 26.3904V26.4131H17.8498V26.9671H15.4251ZM16.8299 27.45V26.7994L16.8441 26.5594V24.5409H17.5018V27.45H16.8299ZM18.8391 27.4869C18.6999 27.4869 18.5763 27.4637 18.4684 27.4173C18.3614 27.37 18.2766 27.299 18.2141 27.2043C18.1526 27.1086 18.1218 26.9888 18.1218 26.8449C18.1218 26.7237 18.1431 26.6214 18.1857 26.5381C18.2283 26.4547 18.2871 26.387 18.3619 26.335C18.4367 26.2829 18.5228 26.2436 18.6204 26.2171C18.7179 26.1896 18.8221 26.1711 18.9329 26.1617C19.0569 26.1503 19.1568 26.1385 19.2326 26.1261C19.3084 26.1129 19.3633 26.0944 19.3974 26.0708C19.4324 26.0461 19.4499 26.0116 19.4499 25.9671V25.96C19.4499 25.887 19.4248 25.8307 19.3746 25.7909C19.3245 25.7511 19.2567 25.7313 19.1715 25.7313C19.0797 25.7313 19.0058 25.7511 18.9499 25.7909C18.8941 25.8307 18.8585 25.8856 18.8434 25.9557L18.2028 25.933C18.2217 25.8004 18.2705 25.682 18.3491 25.5779C18.4286 25.4727 18.5375 25.3904 18.6758 25.3307C18.815 25.2701 18.9821 25.2398 19.1772 25.2398C19.3164 25.2398 19.4447 25.2564 19.5621 25.2895C19.6796 25.3217 19.7818 25.369 19.869 25.4315C19.9561 25.4931 20.0233 25.5689 20.0707 25.6588C20.119 25.7488 20.1431 25.8515 20.1431 25.9671V27.45H19.4897V27.146H19.4727C19.4338 27.2199 19.3841 27.2824 19.3235 27.3335C19.2638 27.3847 19.1933 27.423 19.1119 27.4486C19.0314 27.4742 18.9405 27.4869 18.8391 27.4869ZM19.0536 27.0324C19.1284 27.0324 19.1957 27.0172 19.2553 26.9869C19.3159 26.9566 19.3642 26.915 19.4002 26.8619C19.4362 26.808 19.4542 26.7455 19.4542 26.6744V26.4671C19.4343 26.4775 19.4102 26.4869 19.3817 26.4955C19.3543 26.504 19.324 26.512 19.2908 26.5196C19.2577 26.5272 19.2236 26.5338 19.1886 26.5395C19.1535 26.5452 19.1199 26.5504 19.0877 26.5551C19.0224 26.5655 18.9665 26.5816 18.9201 26.6034C18.8746 26.6252 18.8396 26.6536 18.815 26.6886C18.7913 26.7227 18.7795 26.7635 18.7795 26.8108C18.7795 26.8828 18.805 26.9377 18.8562 26.9756C18.9083 27.0135 18.9741 27.0324 19.0536 27.0324ZM21.2624 24.5409V27.45H20.5678V24.5409H21.2624ZM23.6094 25.9344L22.9716 25.9514C22.965 25.906 22.947 25.8657 22.9176 25.8307C22.8883 25.7947 22.8499 25.7668 22.8026 25.7469C22.7562 25.7261 22.7022 25.7156 22.6406 25.7156C22.5601 25.7156 22.4915 25.7317 22.4347 25.7639C22.3788 25.7961 22.3513 25.8397 22.3523 25.8946C22.3513 25.9372 22.3684 25.9742 22.4034 26.0054C22.4394 26.0367 22.5033 26.0618 22.5952 26.0807L23.0156 26.1602C23.2334 26.2019 23.3954 26.271 23.5014 26.3676C23.6084 26.4642 23.6624 26.5921 23.6634 26.7511C23.6624 26.9008 23.6179 27.031 23.5298 27.1418C23.4427 27.2526 23.3234 27.3387 23.1719 27.4003C23.0204 27.4609 22.8471 27.4912 22.652 27.4912C22.3404 27.4912 22.0947 27.4273 21.9148 27.2994C21.7358 27.1707 21.6335 26.9983 21.608 26.7824L22.294 26.7654C22.3092 26.8449 22.3485 26.9055 22.4119 26.9472C22.4754 26.9888 22.5563 27.0097 22.6548 27.0097C22.7438 27.0097 22.8163 26.9931 22.8722 26.96C22.928 26.9268 22.9564 26.8828 22.9574 26.8279C22.9564 26.7786 22.9347 26.7393 22.892 26.71C22.8494 26.6797 22.7827 26.656 22.6918 26.6389L22.3111 26.5665C22.0923 26.5267 21.9295 26.4533 21.8224 26.3463C21.7154 26.2384 21.6624 26.1011 21.6634 25.9344C21.6624 25.7886 21.7012 25.664 21.7798 25.5608C21.8584 25.4566 21.9702 25.3771 22.1151 25.3222C22.2599 25.2672 22.4309 25.2398 22.6278 25.2398C22.9233 25.2398 23.1563 25.3018 23.3267 25.4259C23.4972 25.549 23.5914 25.7185 23.6094 25.9344ZM25.2454 25.2682V25.7796H23.842V25.2682H25.2454ZM24.1346 27.45V25.1574C24.1346 24.9888 24.1663 24.8492 24.2298 24.7384C24.2932 24.6266 24.3813 24.5433 24.494 24.4884C24.6067 24.4325 24.7369 24.4046 24.8846 24.4046C24.9812 24.4046 25.0721 24.4121 25.1573 24.4273C25.2435 24.4415 25.3074 24.4543 25.3491 24.4656L25.2383 24.9742C25.2127 24.9656 25.1815 24.9585 25.1445 24.9529C25.1085 24.9472 25.0745 24.9443 25.0423 24.9443C24.9608 24.9443 24.9049 24.9623 24.8746 24.9983C24.8443 25.0343 24.8292 25.0835 24.8292 25.146V27.45H24.1346ZM26.206 26.8776L26.2088 26.0494H26.3054L26.919 25.2682H27.706L26.794 26.3875H26.6108L26.206 26.8776ZM25.5795 27.45V24.5409H26.2741V27.45H25.5795ZM26.9347 27.45L26.3636 26.5438L26.821 26.0509L27.7372 27.45H26.9347ZM4.29545 32.45H3.22017V29.5409H4.29403C4.59044 29.5409 4.84564 29.5992 5.05966 29.7156C5.27462 29.8312 5.44034 29.9978 5.55682 30.2156C5.6733 30.4325 5.73153 30.692 5.73153 30.994C5.73153 31.2971 5.6733 31.5575 5.55682 31.7753C5.44129 31.9931 5.27604 32.1602 5.06108 32.2767C4.84612 32.3922 4.59091 32.45 4.29545 32.45ZM3.9233 31.8506H4.26847C4.43134 31.8506 4.56913 31.8231 4.68182 31.7682C4.79545 31.7123 4.88116 31.6219 4.93892 31.4969C4.99763 31.3709 5.02699 31.2033 5.02699 30.994C5.02699 30.7848 4.99763 30.6181 4.93892 30.494C4.88021 30.369 4.79356 30.2791 4.67898 30.2242C4.56534 30.1683 4.42519 30.1404 4.25852 30.1404H3.9233V31.8506ZM8.04688 30.9344L7.40909 30.9514C7.40246 30.906 7.38447 30.8657 7.35511 30.8307C7.32576 30.7947 7.28741 30.7668 7.24006 30.7469C7.19366 30.7261 7.13968 30.7156 7.07812 30.7156C6.99763 30.7156 6.92898 30.7317 6.87216 30.7639C6.81629 30.7961 6.78883 30.8397 6.78977 30.8946C6.78883 30.9372 6.80587 30.9742 6.84091 31.0054C6.87689 31.0367 6.94081 31.0618 7.03267 31.0807L7.45312 31.1602C7.67093 31.2019 7.83286 31.271 7.93892 31.3676C8.04593 31.4642 8.09991 31.5921 8.10085 31.7511C8.09991 31.9008 8.0554 32.031 7.96733 32.1418C7.88021 32.2526 7.76089 32.3387 7.60938 32.4003C7.45786 32.4609 7.28456 32.4912 7.08949 32.4912C6.77794 32.4912 6.5322 32.4273 6.35227 32.2994C6.1733 32.1707 6.07102 31.9983 6.04545 31.7824L6.73153 31.7654C6.74669 31.8449 6.78598 31.9055 6.84943 31.9472C6.91288 31.9888 6.99384 32.0097 7.09233 32.0097C7.18134 32.0097 7.25379 31.9931 7.30966 31.96C7.36553 31.9268 7.39394 31.8828 7.39489 31.8279C7.39394 31.7786 7.37216 31.7393 7.32955 31.71C7.28693 31.6797 7.22017 31.656 7.12926 31.6389L6.74858 31.5665C6.52983 31.5267 6.36695 31.4533 6.25994 31.3463C6.15294 31.2384 6.09991 31.1011 6.10085 30.9344C6.09991 30.7886 6.13873 30.664 6.21733 30.5608C6.29593 30.4566 6.40767 30.3771 6.55256 30.3222C6.69744 30.2672 6.86837 30.2398 7.06534 30.2398C7.3608 30.2398 7.59375 30.3018 7.7642 30.4259C7.93466 30.549 8.02888 30.7185 8.04688 30.9344ZM9.13743 29.5409V32.45H8.44283V29.5409H9.13743ZM11.4844 30.9344L10.8466 30.9514C10.84 30.906 10.822 30.8657 10.7926 30.8307C10.7633 30.7947 10.7249 30.7668 10.6776 30.7469C10.6312 30.7261 10.5772 30.7156 10.5156 30.7156C10.4351 30.7156 10.3665 30.7317 10.3097 30.7639C10.2538 30.7961 10.2263 30.8397 10.2273 30.8946C10.2263 30.9372 10.2434 30.9742 10.2784 31.0054C10.3144 31.0367 10.3783 31.0618 10.4702 31.0807L10.8906 31.1602C11.1084 31.2019 11.2704 31.271 11.3764 31.3676C11.4834 31.4642 11.5374 31.5921 11.5384 31.7511C11.5374 31.9008 11.4929 32.031 11.4048 32.1418C11.3177 32.2526 11.1984 32.3387 11.0469 32.4003C10.8954 32.4609 10.7221 32.4912 10.527 32.4912C10.2154 32.4912 9.9697 32.4273 9.78977 32.2994C9.6108 32.1707 9.50852 31.9983 9.48295 31.7824L10.169 31.7654C10.1842 31.8449 10.2235 31.9055 10.2869 31.9472C10.3504 31.9888 10.4313 32.0097 10.5298 32.0097C10.6188 32.0097 10.6913 31.9931 10.7472 31.96C10.803 31.9268 10.8314 31.8828 10.8324 31.8279C10.8314 31.7786 10.8097 31.7393 10.767 31.71C10.7244 31.6797 10.6577 31.656 10.5668 31.6389L10.1861 31.5665C9.96733 31.5267 9.80445 31.4533 9.69744 31.3463C9.59044 31.2384 9.53741 31.1011 9.53835 30.9344C9.53741 30.7886 9.57623 30.664 9.65483 30.5608C9.73343 30.4566 9.84517 30.3771 9.99006 30.3222C10.1349 30.2672 10.3059 30.2398 10.5028 30.2398C10.7983 30.2398 11.0313 30.3018 11.2017 30.4259C11.3722 30.549 11.4664 30.7185 11.4844 30.9344ZM13.1204 30.2682V30.7796H11.717V30.2682H13.1204ZM12.0096 32.45V30.1574C12.0096 29.9888 12.0413 29.8492 12.1048 29.7384C12.1682 29.6266 12.2563 29.5433 12.369 29.4884C12.4817 29.4325 12.6119 29.4046 12.7596 29.4046C12.8562 29.4046 12.9471 29.4121 13.0323 29.4273C13.1185 29.4415 13.1824 29.4543 13.2241 29.4656L13.1133 29.9742C13.0877 29.9656 13.0565 29.9585 13.0195 29.9529C12.9835 29.9472 12.9495 29.9443 12.9173 29.9443C12.8358 29.9443 12.7799 29.9623 12.7496 29.9983C12.7193 30.0343 12.7042 30.0835 12.7042 30.146V32.45H12.0096ZM13.4545 30.2682H14.1491V32.5409C14.1491 32.7208 14.1122 32.8638 14.0384 32.9699C13.9654 33.076 13.8622 33.1522 13.7287 33.1986C13.5952 33.245 13.4375 33.2682 13.2557 33.2682C13.2311 33.2682 13.2079 33.2677 13.1861 33.2668C13.1643 33.2658 13.1406 33.2649 13.1151 33.2639V32.7369C13.1321 32.7388 13.1473 32.7403 13.1605 32.7412C13.1738 32.7422 13.187 32.7426 13.2003 32.7426C13.2959 32.7426 13.3622 32.7246 13.3991 32.6886C13.4361 32.6536 13.4545 32.5996 13.4545 32.5267V30.2682ZM13.8011 30.0139C13.7036 30.0139 13.6198 29.9817 13.5497 29.9173C13.4796 29.852 13.4446 29.7734 13.4446 29.6815C13.4446 29.5906 13.4796 29.513 13.5497 29.4486C13.6198 29.3833 13.7036 29.3506 13.8011 29.3506C13.8996 29.3506 13.9834 29.3833 14.0526 29.4486C14.1226 29.513 14.1577 29.5906 14.1577 29.6815C14.1577 29.7734 14.1226 29.852 14.0526 29.9173C13.9834 29.9817 13.8996 30.0139 13.8011 30.0139ZM15.2063 32.4869C15.0671 32.4869 14.9435 32.4637 14.8356 32.4173C14.7286 32.37 14.6438 32.299 14.5813 32.2043C14.5198 32.1086 14.489 31.9888 14.489 31.8449C14.489 31.7237 14.5103 31.6214 14.5529 31.5381C14.5955 31.4547 14.6542 31.387 14.729 31.335C14.8039 31.2829 14.89 31.2436 14.9876 31.2171C15.0851 31.1896 15.1893 31.1711 15.3001 31.1617C15.4241 31.1503 15.524 31.1385 15.5998 31.1261C15.6755 31.1129 15.7305 31.0944 15.7646 31.0708C15.7996 31.0461 15.8171 31.0116 15.8171 30.9671V30.96C15.8171 30.887 15.792 30.8307 15.7418 30.7909C15.6916 30.7511 15.6239 30.7313 15.5387 30.7313C15.4469 30.7313 15.373 30.7511 15.3171 30.7909C15.2612 30.8307 15.2257 30.8856 15.2106 30.9557L14.57 30.933C14.5889 30.8004 14.6377 30.682 14.7163 30.5779C14.7958 30.4727 14.9047 30.3904 15.043 30.3307C15.1822 30.2701 15.3493 30.2398 15.5444 30.2398C15.6836 30.2398 15.8119 30.2564 15.9293 30.2895C16.0468 30.3217 16.149 30.369 16.2362 30.4315C16.3233 30.4931 16.3905 30.5689 16.4379 30.6588C16.4862 30.7488 16.5103 30.8515 16.5103 30.9671V32.45H15.8569V32.146H15.8398C15.801 32.2199 15.7513 32.2824 15.6907 32.3335C15.631 32.3847 15.5605 32.423 15.479 32.4486C15.3986 32.4742 15.3076 32.4869 15.2063 32.4869ZM15.4208 32.0324C15.4956 32.0324 15.5629 32.0172 15.6225 31.9869C15.6831 31.9566 15.7314 31.915 15.7674 31.8619C15.8034 31.808 15.8214 31.7455 15.8214 31.6744V31.4671C15.8015 31.4775 15.7773 31.4869 15.7489 31.4955C15.7215 31.504 15.6912 31.512 15.658 31.5196C15.6249 31.5272 15.5908 31.5338 15.5558 31.5395C15.5207 31.5452 15.4871 31.5504 15.4549 31.5551C15.3896 31.5655 15.3337 31.5816 15.2873 31.6034C15.2418 31.6252 15.2068 31.6536 15.1822 31.6886C15.1585 31.7227 15.1467 31.7635 15.1467 31.8108C15.1467 31.8828 15.1722 31.9377 15.2234 31.9756C15.2754 32.0135 15.3413 32.0324 15.4208 32.0324ZM18.8398 30.9344L18.2021 30.9514C18.1954 30.906 18.1774 30.8657 18.1481 30.8307C18.1187 30.7947 18.0804 30.7668 18.033 30.7469C17.9866 30.7261 17.9326 30.7156 17.8711 30.7156C17.7906 30.7156 17.7219 30.7317 17.6651 30.7639C17.6093 30.7961 17.5818 30.8397 17.5827 30.8946C17.5818 30.9372 17.5988 30.9742 17.6339 31.0054C17.6699 31.0367 17.7338 31.0618 17.8256 31.0807L18.2461 31.1602C18.4639 31.2019 18.6258 31.271 18.7319 31.3676C18.8389 31.4642 18.8929 31.5921 18.8938 31.7511C18.8929 31.9008 18.8484 32.031 18.7603 32.1418C18.6732 32.2526 18.5539 32.3387 18.4023 32.4003C18.2508 32.4609 18.0775 32.4912 17.8825 32.4912C17.5709 32.4912 17.3252 32.4273 17.1452 32.2994C16.9663 32.1707 16.864 31.9983 16.8384 31.7824L17.5245 31.7654C17.5397 31.8449 17.579 31.9055 17.6424 31.9472C17.7058 31.9888 17.7868 32.0097 17.8853 32.0097C17.9743 32.0097 18.0468 31.9931 18.1026 31.96C18.1585 31.9268 18.1869 31.8828 18.1879 31.8279C18.1869 31.7786 18.1651 31.7393 18.1225 31.71C18.0799 31.6797 18.0131 31.656 17.9222 31.6389L17.5415 31.5665C17.3228 31.5267 17.1599 31.4533 17.0529 31.3463C16.9459 31.2384 16.8929 31.1011 16.8938 30.9344C16.8929 30.7886 16.9317 30.664 17.0103 30.5608C17.0889 30.4566 17.2006 30.3771 17.3455 30.3222C17.4904 30.2672 17.6613 30.2398 17.8583 30.2398C18.1538 30.2398 18.3867 30.3018 18.5572 30.4259C18.7276 30.549 18.8219 30.7185 18.8398 30.9344ZM20.0327 32.4813C19.8717 32.4813 19.7254 32.4396 19.5938 32.3563C19.4621 32.2729 19.357 32.1479 19.2784 31.9813C19.1998 31.8146 19.1605 31.6077 19.1605 31.3605C19.1605 31.1039 19.2012 30.8927 19.2827 30.727C19.3641 30.5613 19.4706 30.4386 19.6023 30.3591C19.7348 30.2796 19.8774 30.2398 20.0298 30.2398C20.1444 30.2398 20.2424 30.2597 20.3239 30.2994C20.4053 30.3383 20.4725 30.3885 20.5256 30.45C20.5786 30.5116 20.6188 30.5755 20.6463 30.6418H20.6605V29.5409H21.3551V32.45H20.6676V32.0963H20.6463C20.617 32.1636 20.5753 32.2265 20.5213 32.2852C20.4673 32.344 20.3996 32.3913 20.3182 32.4273C20.2377 32.4633 20.1425 32.4813 20.0327 32.4813ZM20.2741 31.9401C20.3584 31.9401 20.4304 31.9164 20.4901 31.869C20.5497 31.8208 20.5956 31.753 20.6278 31.6659C20.66 31.5788 20.6761 31.4765 20.6761 31.3591C20.6761 31.2398 20.66 31.137 20.6278 31.0509C20.5966 30.9647 20.5507 30.8984 20.4901 30.852C20.4304 30.8056 20.3584 30.7824 20.2741 30.7824C20.188 30.7824 20.1151 30.8061 20.0554 30.8534C19.9957 30.9008 19.9503 30.9675 19.919 31.0537C19.8887 31.1399 19.8736 31.2417 19.8736 31.3591C19.8736 31.4765 19.8892 31.5788 19.9205 31.6659C19.9517 31.753 19.9967 31.8208 20.0554 31.869C20.1151 31.9164 20.188 31.9401 20.2741 31.9401ZM22.4208 31.8776L22.4237 31.0494H22.5202L23.1339 30.2682H23.9208L23.0089 31.3875H22.8256L22.4208 31.8776ZM21.7944 32.45V29.5409H22.489V32.45H21.7944ZM23.1495 32.45L22.5785 31.5438L23.0359 31.0509L23.9521 32.45H23.1495ZM25.4094 30.2682V30.7796H24.006V30.2682H25.4094ZM24.2987 32.45V30.1574C24.2987 29.9888 24.3304 29.8492 24.3938 29.7384C24.4573 29.6266 24.5453 29.5433 24.658 29.4884C24.7707 29.4325 24.9009 29.4046 25.0487 29.4046C25.1452 29.4046 25.2362 29.4121 25.3214 29.4273C25.4076 29.4415 25.4715 29.4543 25.5131 29.4656L25.4023 29.9742C25.3768 29.9656 25.3455 29.9585 25.3086 29.9529C25.2726 29.9472 25.2385 29.9443 25.2063 29.9443C25.1249 29.9443 25.069 29.9623 25.0387 29.9983C25.0084 30.0343 24.9933 30.0835 24.9933 30.146V32.45H24.2987ZM26.9837 30.2682V30.7796H25.5803V30.2682H26.9837ZM25.8729 32.45V30.1574C25.8729 29.9888 25.9046 29.8492 25.968 29.7384C26.0315 29.6266 26.1196 29.5433 26.2322 29.4884C26.3449 29.4325 26.4751 29.4046 26.6229 29.4046C26.7195 29.4046 26.8104 29.4121 26.8956 29.4273C26.9818 29.4415 27.0457 29.4543 27.0874 29.4656L26.9766 29.9742C26.951 29.9656 26.9197 29.9585 26.8828 29.9529C26.8468 29.9472 26.8127 29.9443 26.7805 29.9443C26.6991 29.9443 26.6432 29.9623 26.6129 29.9983C26.5826 30.0343 26.5675 30.0835 26.5675 30.146V32.45H25.8729ZM3.91477 34.5409V37.45H3.22017V34.5409H3.91477ZM4.97195 37.4869C4.83274 37.4869 4.70916 37.4637 4.60121 37.4173C4.4942 37.37 4.40945 37.299 4.34695 37.2043C4.28539 37.1086 4.25462 36.9888 4.25462 36.8449C4.25462 36.7237 4.27592 36.6214 4.31854 36.5381C4.36115 36.4547 4.41986 36.387 4.49467 36.335C4.56948 36.2829 4.65566 36.2436 4.7532 36.2171C4.85073 36.1896 4.9549 36.1711 5.0657 36.1617C5.18975 36.1503 5.28965 36.1385 5.36541 36.1261C5.44117 36.1129 5.49609 36.0944 5.53018 36.0708C5.56522 36.0461 5.58274 36.0116 5.58274 35.9671V35.96C5.58274 35.887 5.55765 35.8307 5.50746 35.7909C5.45727 35.7511 5.38956 35.7313 5.30433 35.7313C5.21248 35.7313 5.13861 35.7511 5.08274 35.7909C5.02687 35.8307 4.99136 35.8856 4.97621 35.9557L4.33558 35.933C4.35452 35.8004 4.40329 35.682 4.48189 35.5779C4.56143 35.4727 4.67034 35.3904 4.80859 35.3307C4.9478 35.2701 5.11494 35.2398 5.31001 35.2398C5.44922 35.2398 5.57753 35.2564 5.69496 35.2895C5.81238 35.3217 5.91465 35.369 6.00178 35.4315C6.0889 35.4931 6.15613 35.5689 6.20348 35.6588C6.25178 35.7488 6.27592 35.8515 6.27592 35.9671V37.45H5.62251V37.146H5.60547C5.56664 37.2199 5.51693 37.2824 5.45632 37.3335C5.39666 37.3847 5.32611 37.423 5.24467 37.4486C5.16418 37.4742 5.07327 37.4869 4.97195 37.4869ZM5.18643 37.0324C5.26125 37.0324 5.32848 37.0172 5.38814 36.9869C5.44875 36.9566 5.49704 36.915 5.53303 36.8619C5.56901 36.808 5.587 36.7455 5.587 36.6744V36.4671C5.56712 36.4775 5.54297 36.4869 5.51456 36.4955C5.4871 36.504 5.45679 36.512 5.42365 36.5196C5.39051 36.5272 5.35642 36.5338 5.32138 36.5395C5.28634 36.5452 5.25272 36.5504 5.22053 36.5551C5.15518 36.5655 5.09931 36.5816 5.05291 36.6034C5.00746 36.6252 4.97242 36.6536 4.9478 36.6886C4.92412 36.7227 4.91229 36.7635 4.91229 36.8108C4.91229 36.8828 4.93786 36.9377 4.98899 36.9756C5.04107 37.0135 5.10689 37.0324 5.18643 37.0324ZM7.32706 36.8776L7.3299 36.0494H7.42649L8.04013 35.2682H8.82706L7.91513 36.3875H7.73189L7.32706 36.8776ZM6.70064 37.45V34.5409H7.39524V37.45H6.70064ZM8.05575 37.45L7.48473 36.5438L7.94212 36.0509L8.85831 37.45H8.05575ZM10.9805 35.9344L10.3427 35.9514C10.3361 35.906 10.3181 35.8657 10.2887 35.8307C10.2594 35.7947 10.221 35.7668 10.1737 35.7469C10.1272 35.7261 10.0733 35.7156 10.0117 35.7156C9.93123 35.7156 9.86257 35.7317 9.80575 35.7639C9.74988 35.7961 9.72242 35.8397 9.72337 35.8946C9.72242 35.9372 9.73946 35.9742 9.7745 36.0054C9.81049 36.0367 9.87441 36.0618 9.96626 36.0807L10.3867 36.1602C10.6045 36.2019 10.7665 36.271 10.8725 36.3676C10.9795 36.4642 11.0335 36.5921 11.0344 36.7511C11.0335 36.9008 10.989 37.031 10.9009 37.1418C10.8138 37.2526 10.6945 37.3387 10.543 37.4003C10.3915 37.4609 10.2182 37.4912 10.0231 37.4912C9.71153 37.4912 9.46579 37.4273 9.28587 37.2994C9.10689 37.1707 9.00462 36.9983 8.97905 36.7824L9.66513 36.7654C9.68028 36.8449 9.71958 36.9055 9.78303 36.9472C9.84647 36.9888 9.92744 37.0097 10.0259 37.0097C10.1149 37.0097 10.1874 36.9931 10.2433 36.96C10.2991 36.9268 10.3275 36.8828 10.3285 36.8279C10.3275 36.7786 10.3058 36.7393 10.2631 36.71C10.2205 36.6797 10.1538 36.656 10.0629 36.6389L9.68217 36.5665C9.46342 36.5267 9.30054 36.4533 9.19354 36.3463C9.08653 36.2384 9.0335 36.1011 9.03445 35.9344C9.0335 35.7886 9.07232 35.664 9.15092 35.5608C9.22952 35.4566 9.34126 35.3771 9.48615 35.3222C9.63104 35.2672 9.80196 35.2398 9.99893 35.2398C10.2944 35.2398 10.5273 35.3018 10.6978 35.4259C10.8683 35.549 10.9625 35.7185 10.9805 35.9344ZM12.1733 37.4813C12.0123 37.4813 11.866 37.4396 11.7344 37.3563C11.6027 37.2729 11.4976 37.1479 11.419 36.9813C11.3404 36.8146 11.3011 36.6077 11.3011 36.3605C11.3011 36.1039 11.3419 35.8927 11.4233 35.727C11.5047 35.5613 11.6113 35.4386 11.7429 35.3591C11.8755 35.2796 12.018 35.2398 12.1705 35.2398C12.285 35.2398 12.383 35.2597 12.4645 35.2994C12.5459 35.3383 12.6132 35.3885 12.6662 35.45C12.7192 35.5116 12.7595 35.5755 12.7869 35.6418H12.8011V34.5409H13.4957V37.45H12.8082V37.0963H12.7869C12.7576 37.1636 12.7159 37.2265 12.6619 37.2852C12.608 37.344 12.5402 37.3913 12.4588 37.4273C12.3783 37.4633 12.2831 37.4813 12.1733 37.4813ZM12.4148 36.9401C12.4991 36.9401 12.571 36.9164 12.6307 36.869C12.6903 36.8208 12.7363 36.753 12.7685 36.6659C12.8007 36.5788 12.8168 36.4765 12.8168 36.3591C12.8168 36.2398 12.8007 36.137 12.7685 36.0509C12.7372 35.9647 12.6913 35.8984 12.6307 35.852C12.571 35.8056 12.4991 35.7824 12.4148 35.7824C12.3286 35.7824 12.2557 35.8061 12.196 35.8534C12.1364 35.9008 12.0909 35.9675 12.0597 36.0537C12.0294 36.1399 12.0142 36.2417 12.0142 36.3591C12.0142 36.4765 12.0298 36.5788 12.0611 36.6659C12.0923 36.753 12.1373 36.8208 12.196 36.869C12.2557 36.9164 12.3286 36.9401 12.4148 36.9401ZM15.1751 35.2682V35.7796H13.7717V35.2682H15.1751ZM14.0643 37.45V35.1574C14.0643 34.9888 14.096 34.8492 14.1594 34.7384C14.2229 34.6266 14.311 34.5433 14.4237 34.4884C14.5363 34.4325 14.6665 34.4046 14.8143 34.4046C14.9109 34.4046 15.0018 34.4121 15.087 34.4273C15.1732 34.4415 15.2371 34.4543 15.2788 34.4656L15.168 34.9742C15.1424 34.9656 15.1112 34.9585 15.0742 34.9529C15.0382 34.9472 15.0041 34.9443 14.9719 34.9443C14.8905 34.9443 14.8346 34.9623 14.8043 34.9983C14.774 35.0343 14.7589 35.0835 14.7589 35.146V37.45H14.0643ZM15.5036 37.45V36.9443L16.5646 36.0154C16.6442 35.9434 16.7119 35.8776 16.7678 35.8179C16.8236 35.7573 16.8662 35.6967 16.8956 35.6361C16.925 35.5745 16.9396 35.5078 16.9396 35.4358C16.9396 35.3553 16.9221 35.2867 16.8871 35.2298C16.852 35.1721 16.8037 35.1276 16.7422 35.0963C16.6806 35.0651 16.6101 35.0494 16.5305 35.0494C16.45 35.0494 16.3795 35.066 16.3189 35.0992C16.2583 35.1314 16.2109 35.1782 16.1768 35.2398C16.1437 35.3013 16.1271 35.3761 16.1271 35.4642H15.4609C15.4609 35.2663 15.5054 35.0954 15.5945 34.9514C15.6835 34.8075 15.8085 34.6967 15.9695 34.619C16.1314 34.5404 16.3194 34.5011 16.5334 34.5011C16.754 34.5011 16.9458 34.5381 17.1087 34.6119C17.2715 34.6858 17.3975 34.789 17.4865 34.9216C17.5765 35.0532 17.6214 35.2062 17.6214 35.3804C17.6214 35.4912 17.5992 35.6011 17.5547 35.71C17.5102 35.8189 17.4302 35.9391 17.3146 36.0708C17.2 36.2024 17.0372 36.3601 16.826 36.5438L16.478 36.8648V36.8833H17.657V37.45H15.5036ZM18.6751 37.4869C18.5359 37.4869 18.4123 37.4637 18.3043 37.4173C18.1973 37.37 18.1126 37.299 18.0501 37.2043C17.9885 37.1086 17.9577 36.9888 17.9577 36.8449C17.9577 36.7237 17.979 36.6214 18.0217 36.5381C18.0643 36.4547 18.123 36.387 18.1978 36.335C18.2726 36.2829 18.3588 36.2436 18.4563 36.2171C18.5539 36.1896 18.658 36.1711 18.7688 36.1617C18.8929 36.1503 18.9928 36.1385 19.0685 36.1261C19.1443 36.1129 19.1992 36.0944 19.2333 36.0708C19.2683 36.0461 19.2859 36.0116 19.2859 35.9671V35.96C19.2859 35.887 19.2608 35.8307 19.2106 35.7909C19.1604 35.7511 19.0927 35.7313 19.0075 35.7313C18.9156 35.7313 18.8417 35.7511 18.7859 35.7909C18.73 35.8307 18.6945 35.8856 18.6793 35.9557L18.0387 35.933C18.0576 35.8004 18.1064 35.682 18.185 35.5779C18.2646 35.4727 18.3735 35.3904 18.5117 35.3307C18.6509 35.2701 18.8181 35.2398 19.0131 35.2398C19.1523 35.2398 19.2807 35.2564 19.3981 35.2895C19.5155 35.3217 19.6178 35.369 19.7049 35.4315C19.792 35.4931 19.8593 35.5689 19.9066 35.6588C19.9549 35.7488 19.979 35.8515 19.979 35.9671V37.45H19.3256V37.146H19.3086C19.2698 37.2199 19.2201 37.2824 19.1594 37.3335C19.0998 37.3847 19.0292 37.423 18.9478 37.4486C18.8673 37.4742 18.7764 37.4869 18.6751 37.4869ZM18.8896 37.0324C18.9644 37.0324 19.0316 37.0172 19.0913 36.9869C19.1519 36.9566 19.2002 36.915 19.2362 36.8619C19.2721 36.808 19.2901 36.7455 19.2901 36.6744V36.4671C19.2702 36.4775 19.2461 36.4869 19.2177 36.4955C19.1902 36.504 19.1599 36.512 19.1268 36.5196C19.0936 36.5272 19.0595 36.5338 19.0245 36.5395C18.9895 36.5452 18.9558 36.5504 18.9237 36.5551C18.8583 36.5655 18.8024 36.5816 18.756 36.6034C18.7106 36.6252 18.6755 36.6536 18.6509 36.6886C18.6272 36.7227 18.6154 36.7635 18.6154 36.8108C18.6154 36.8828 18.641 36.9377 18.6921 36.9756C18.7442 37.0135 18.81 37.0324 18.8896 37.0324ZM22.3086 35.9344L21.6708 35.9514C21.6642 35.906 21.6462 35.8657 21.6168 35.8307C21.5875 35.7947 21.5491 35.7668 21.5018 35.7469C21.4554 35.7261 21.4014 35.7156 21.3398 35.7156C21.2594 35.7156 21.1907 35.7317 21.1339 35.7639C21.078 35.7961 21.0505 35.8397 21.0515 35.8946C21.0505 35.9372 21.0676 35.9742 21.1026 36.0054C21.1386 36.0367 21.2025 36.0618 21.2944 36.0807L21.7148 36.1602C21.9326 36.2019 22.0946 36.271 22.2006 36.3676C22.3076 36.4642 22.3616 36.5921 22.3626 36.7511C22.3616 36.9008 22.3171 37.031 22.229 37.1418C22.1419 37.2526 22.0226 37.3387 21.8711 37.4003C21.7196 37.4609 21.5463 37.4912 21.3512 37.4912C21.0397 37.4912 20.7939 37.4273 20.614 37.2994C20.435 37.1707 20.3327 36.9983 20.3072 36.7824L20.9933 36.7654C21.0084 36.8449 21.0477 36.9055 21.1112 36.9472C21.1746 36.9888 21.2556 37.0097 21.354 37.0097C21.4431 37.0097 21.5155 36.9931 21.5714 36.96C21.6272 36.9268 21.6557 36.8828 21.6566 36.8279C21.6557 36.7786 21.6339 36.7393 21.5913 36.71C21.5487 36.6797 21.4819 36.656 21.391 36.6389L21.0103 36.5665C20.7915 36.5267 20.6287 36.4533 20.5217 36.3463C20.4147 36.2384 20.3616 36.1011 20.3626 35.9344C20.3616 35.7886 20.4004 35.664 20.479 35.5608C20.5576 35.4566 20.6694 35.3771 20.8143 35.3222C20.9592 35.2672 21.1301 35.2398 21.3271 35.2398C21.6225 35.2398 21.8555 35.3018 22.0259 35.4259C22.1964 35.549 22.2906 35.7185 22.3086 35.9344ZM23.3338 37.45H22.5781L23.5597 34.5409H24.4957L25.4773 37.45H24.7216L24.0384 35.2739H24.0156L23.3338 37.45ZM23.233 36.3051H24.8125V36.8392H23.233V36.3051ZM26.6737 37.4912C26.4454 37.4912 26.2485 37.4462 26.0827 37.3563C25.918 37.2654 25.7911 37.1361 25.7021 36.9685C25.614 36.7999 25.57 36.5996 25.57 36.3676C25.57 36.1422 25.6145 35.9453 25.7035 35.7767C25.7925 35.6072 25.918 35.4756 26.0799 35.3818C26.2418 35.2871 26.4326 35.2398 26.6523 35.2398C26.8076 35.2398 26.9497 35.2639 27.0785 35.3122C27.2073 35.3605 27.3185 35.432 27.4123 35.5267C27.506 35.6214 27.579 35.7384 27.631 35.8776C27.6831 36.0158 27.7092 36.1744 27.7092 36.3534V36.5267H25.8129V36.1233H27.0629C27.0619 36.0494 27.0444 35.9836 27.0103 35.9259C26.9762 35.8681 26.9293 35.8231 26.8697 35.7909C26.811 35.7578 26.7433 35.7412 26.6665 35.7412C26.5889 35.7412 26.5193 35.7587 26.4577 35.7938C26.3962 35.8279 26.3474 35.8747 26.3114 35.9344C26.2754 35.9931 26.2565 36.0599 26.2546 36.1347V36.5452C26.2546 36.6342 26.2721 36.7123 26.3072 36.7796C26.3422 36.8458 26.3919 36.8975 26.4563 36.9344C26.5207 36.9713 26.5974 36.9898 26.6864 36.9898C26.748 36.9898 26.8039 36.9813 26.854 36.9642C26.9042 36.9472 26.9473 36.9221 26.9833 36.8889C27.0193 36.8558 27.0463 36.8151 27.0643 36.7668L27.7021 36.7852C27.6755 36.9282 27.6173 37.0528 27.5273 37.1588C27.4383 37.2639 27.3214 37.3458 27.1765 37.4046C27.0316 37.4623 26.864 37.4912 26.6737 37.4912Z" fill="white"/>
<path d="M31.2178 21.0078C30.9998 21.1377 30.8119 21.1895 30.6541 21.1633C30.4962 21.1361 30.3746 21.0348 30.2892 20.8594C30.2038 20.683 30.1615 20.435 30.1623 20.1154C30.1631 19.7958 30.2058 19.4995 30.2904 19.2265C30.3758 18.9521 30.4971 18.7099 30.6541 18.4999C30.8119 18.2885 30.9998 18.1178 31.2178 17.9879C31.4359 17.858 31.6238 17.8047 31.7816 17.8281C31.9402 17.8501 32.0623 17.9474 32.1477 18.1199C32.2331 18.2925 32.2754 18.5382 32.2746 18.8568C32.2746 19.1769 32.2319 19.476 32.1465 19.7542C32.061 20.0324 31.9394 20.2786 31.7816 20.4929C31.6246 20.7058 31.4367 20.8774 31.2178 21.0078ZM31.2178 20.4325C31.348 20.3549 31.4533 20.215 31.5339 20.0126C31.6144 19.8094 31.6543 19.5474 31.6535 19.2269C31.6535 19.0167 31.6352 18.8543 31.5986 18.7397C31.562 18.6242 31.5111 18.5523 31.446 18.5238C31.3809 18.4953 31.3049 18.507 31.2178 18.5589C31.0885 18.636 30.9839 18.7745 30.9042 18.9745C30.8245 19.1735 30.7842 19.4304 30.7834 19.7453C30.7826 19.9588 30.8001 20.125 30.8359 20.2439C30.8725 20.3622 30.9237 20.4363 30.9896 20.4662C31.0555 20.4951 31.1316 20.4839 31.2178 20.4325ZM33.1331 17.6138L33.4418 18.1486L33.7615 17.2394L34.3631 16.8809L33.8396 18.2837L34.3826 19.0511L33.7859 19.4066L33.4418 18.8872L33.1062 19.8116L32.501 20.1722L33.0452 18.7571L32.5278 17.9744L33.1331 17.6138ZM36.2719 16.4098L35.724 16.7533C35.7183 16.7112 35.7029 16.6802 35.6776 16.6602C35.6524 16.6392 35.6195 16.6309 35.5788 16.6353C35.5389 16.6382 35.4926 16.6554 35.4397 16.6869C35.3705 16.7281 35.3116 16.7794 35.2627 16.8406C35.2147 16.9014 35.1912 16.9591 35.192 17.0135C35.1912 17.0566 35.2058 17.0848 35.2359 17.0981C35.2668 17.1109 35.3217 17.1033 35.4006 17.0752L35.7618 16.9396C35.9489 16.8698 36.0881 16.856 36.1792 16.8983C36.2711 16.9401 36.3175 17.0403 36.3183 17.1989C36.3175 17.3491 36.2792 17.502 36.2036 17.6579C36.1287 17.8133 36.0262 17.9606 35.8961 18.0997C35.7659 18.2378 35.617 18.3568 35.4494 18.4567C35.1818 18.6161 34.9707 18.678 34.8161 18.6423C34.6624 18.6051 34.5745 18.4851 34.5525 18.2823L35.1419 17.914C35.155 17.9858 35.1887 18.0263 35.2432 18.0355C35.2977 18.0447 35.3673 18.0241 35.4519 17.9737C35.5284 17.9281 35.5906 17.8745 35.6386 17.8127C35.6866 17.751 35.711 17.6924 35.7118 17.637C35.711 17.5882 35.6923 17.5601 35.6557 17.5525C35.6191 17.5441 35.5617 17.5546 35.4836 17.584L35.1566 17.7064C34.9687 17.7786 34.8287 17.7886 34.7368 17.7364C34.6449 17.6832 34.5993 17.573 34.6001 17.4059C34.5993 17.2605 34.6327 17.1161 34.7002 16.9727C34.7677 16.8283 34.8637 16.6916 34.9882 16.5625C35.1126 16.4334 35.2595 16.3184 35.4287 16.2176C35.6825 16.0664 35.8826 16.0092 36.0291 16.046C36.1755 16.0818 36.2565 16.2031 36.2719 16.4098ZM37.2966 17.3461C37.1583 17.4285 37.0327 17.4618 36.9196 17.4458C36.8065 17.4298 36.7162 17.3586 36.6487 17.2322C36.5811 17.1058 36.5474 16.919 36.5474 16.6718C36.5474 16.4152 36.5824 16.1832 36.6523 15.9758C36.7223 15.7684 36.8138 15.5912 36.9269 15.4443C37.0408 15.2969 37.1632 15.1842 37.2942 15.1061C37.3926 15.0475 37.4768 15.0172 37.5468 15.0153C37.6168 15.0124 37.6745 15.0282 37.7201 15.0626C37.7656 15.097 37.8002 15.1403 37.8238 15.1926L37.836 15.1853V14.0844L38.4327 13.7289V16.638L37.8421 16.9899V16.6362L37.8238 16.6471C37.7986 16.7294 37.7628 16.8137 37.7164 16.9C37.67 16.9863 37.6119 17.0684 37.5419 17.146C37.4728 17.2232 37.391 17.2899 37.2966 17.3461ZM37.5041 16.6813C37.5765 16.6382 37.6383 16.5777 37.6896 16.4998C37.7408 16.421 37.7803 16.3298 37.8079 16.2262C37.8356 16.1226 37.8494 16.012 37.8494 15.8946C37.8494 15.7753 37.8356 15.6808 37.8079 15.6111C37.7811 15.5409 37.7416 15.4981 37.6896 15.4828C37.6383 15.4669 37.5765 15.4805 37.5041 15.5237C37.4301 15.5678 37.3674 15.6288 37.3162 15.7067C37.2649 15.7845 37.2259 15.8746 37.199 15.9767C37.173 16.0784 37.16 16.188 37.16 16.3054C37.16 16.4228 37.1734 16.5171 37.2002 16.5882C37.2271 16.6594 37.2657 16.704 37.3162 16.7223C37.3674 16.7391 37.4301 16.7255 37.5041 16.6813ZM31.2544 23.7331V24.2445L30.0488 24.9628V24.4515L31.2544 23.7331ZM30.3002 26.4835V24.1909C30.3002 24.0223 30.3274 23.8664 30.3819 23.7231C30.4365 23.5789 30.5121 23.4505 30.6089 23.3379C30.7057 23.2244 30.8176 23.1298 30.9445 23.0542C31.0275 23.0047 31.1056 22.9658 31.1788 22.9373C31.2528 22.9074 31.3077 22.8874 31.3435 22.8775L31.2483 23.4427C31.2264 23.4473 31.1995 23.4562 31.1678 23.4694C31.1369 23.4821 31.1076 23.4967 31.0799 23.5132C31.01 23.5549 30.962 23.6015 30.936 23.653C30.9099 23.7045 30.8969 23.7615 30.8969 23.824V26.128L30.3002 26.4835ZM31.9961 25.51C31.8765 25.5812 31.7703 25.6213 31.6776 25.6302C31.5856 25.6376 31.5128 25.6099 31.4591 25.5472C31.4063 25.4831 31.3798 25.3791 31.3798 25.2351C31.3798 25.1139 31.3981 25.0007 31.4347 24.8956C31.4713 24.7904 31.5218 24.6927 31.5861 24.6023C31.6503 24.5119 31.7244 24.4285 31.8081 24.3521C31.8919 24.2747 31.9814 24.2029 32.0766 24.1367C32.1832 24.0619 32.269 23.9989 32.3341 23.9478C32.3992 23.8958 32.4463 23.8492 32.4756 23.8081C32.5057 23.7655 32.5208 23.722 32.5208 23.6775V23.6704C32.5208 23.5975 32.4992 23.554 32.4561 23.5399C32.413 23.5258 32.3548 23.5406 32.2816 23.5842C32.2027 23.6312 32.1392 23.6889 32.0912 23.7573C32.0432 23.8256 32.0127 23.8987 31.9997 23.9766L31.4494 24.2817C31.4657 24.1395 31.5075 23.9961 31.5751 23.8517C31.6434 23.7059 31.737 23.5678 31.8557 23.4374C31.9753 23.3055 32.1189 23.1896 32.2865 23.0898C32.4061 23.0185 32.5163 22.9694 32.6172 22.9425C32.7181 22.9146 32.8059 22.9096 32.8808 22.9275C32.9556 22.9444 33.0134 22.9858 33.054 23.0515C33.0955 23.1167 33.1163 23.2071 33.1163 23.3227V24.8056L32.555 25.1401V24.8361L32.5403 24.8448C32.507 24.9386 32.4642 25.0265 32.4122 25.1087C32.3609 25.1903 32.3003 25.2648 32.2304 25.332C32.1612 25.3988 32.0831 25.4581 31.9961 25.51ZM32.1803 24.9457C32.2446 24.9074 32.3024 24.8578 32.3536 24.797C32.4057 24.7356 32.4472 24.6693 32.4781 24.5978C32.509 24.5254 32.5244 24.4537 32.5244 24.3827V24.1753C32.5074 24.1959 32.4866 24.2177 32.4622 24.2408C32.4386 24.2634 32.4126 24.2869 32.3841 24.3115C32.3556 24.336 32.3264 24.3601 32.2963 24.3837C32.2662 24.4073 32.2373 24.4297 32.2096 24.4509C32.1535 24.4948 32.1055 24.5395 32.0656 24.585C32.0266 24.6301 31.9965 24.6764 31.9753 24.7241C31.955 24.7703 31.9448 24.817 31.9448 24.8644C31.9448 24.9364 31.9668 24.9782 32.0107 24.9899C32.0555 25.0011 32.112 24.9864 32.1803 24.9457ZM35.1175 22.0976L34.5696 22.4411C34.5639 22.399 34.5485 22.368 34.5233 22.348C34.498 22.327 34.4651 22.3187 34.4244 22.3231C34.3846 22.326 34.3382 22.3432 34.2853 22.3747C34.2162 22.4159 34.1572 22.4672 34.1084 22.5284C34.0604 22.5892 34.0368 22.6469 34.0376 22.7013C34.0368 22.7444 34.0514 22.7726 34.0815 22.7859C34.1124 22.7987 34.1673 22.7911 34.2463 22.763L34.6075 22.6274C34.7946 22.5576 34.9337 22.5438 35.0248 22.5861C35.1167 22.6279 35.1631 22.7281 35.1639 22.8867C35.1631 23.0369 35.1249 23.1898 35.0492 23.3457C34.9744 23.5011 34.8718 23.6484 34.7417 23.7875C34.6115 23.9256 34.4626 24.0446 34.2951 24.1445C34.0274 24.3039 33.8163 24.3658 33.6617 24.3301C33.508 24.2929 33.4201 24.1729 33.3982 23.9701L33.9876 23.6018C34.0006 23.6736 34.0343 23.7141 34.0888 23.7233C34.1433 23.7325 34.2129 23.7119 34.2975 23.6615C34.374 23.6159 34.4362 23.5623 34.4842 23.5005C34.5322 23.4388 34.5566 23.3802 34.5574 23.3248C34.5566 23.276 34.5379 23.2479 34.5013 23.2403C34.4647 23.2319 34.4073 23.2424 34.3292 23.2718L34.0022 23.3943C33.8143 23.4664 33.6744 23.4764 33.5824 23.4242C33.4905 23.371 33.4449 23.2608 33.4458 23.0937C33.4449 22.9483 33.4783 22.8039 33.5458 22.6605C33.6133 22.5161 33.7093 22.3794 33.8338 22.2503C33.9583 22.1212 34.1051 22.0062 34.2743 21.9054C34.5281 21.7542 34.7283 21.697 34.8747 21.7338C35.0211 21.7696 35.1021 21.8909 35.1175 22.0976ZM36.0544 21.8107V23.055L35.4577 23.4106V20.5015L36.0349 20.1576V21.2854L36.0556 21.2731C36.0979 21.1134 36.1671 20.9671 36.2631 20.8341C36.3599 20.7007 36.4782 20.5923 36.6182 20.5089C36.75 20.4304 36.8647 20.3961 36.9623 20.4061C37.0599 20.4152 37.1356 20.4653 37.1893 20.5564C37.2438 20.6471 37.2706 20.775 37.2698 20.9403V22.3309L36.6731 22.6864V21.4322C36.6739 21.3105 36.6479 21.2313 36.595 21.1946C36.5421 21.1579 36.4677 21.1682 36.3717 21.2254C36.309 21.2627 36.2537 21.3118 36.2057 21.3726C36.1585 21.4319 36.1215 21.4989 36.0947 21.5737C36.0686 21.6479 36.0552 21.7269 36.0544 21.8107ZM38.7076 19.2924V19.8038L37.5019 20.5221V20.0107L38.7076 19.2924ZM37.7533 22.0428V19.7502C37.7533 19.5816 37.7806 19.4257 37.8351 19.2824C37.8896 19.1382 37.9652 19.0098 38.0621 18.8972C38.1589 18.7836 38.2707 18.6891 38.3976 18.6134C38.4806 18.564 38.5587 18.525 38.6319 18.4966C38.706 18.4667 38.7609 18.4467 38.7967 18.4368L38.7015 19.002C38.6795 19.0066 38.6527 19.0155 38.6209 19.0287C38.59 19.0414 38.5607 19.056 38.5331 19.0725C38.4631 19.1142 38.4151 19.1608 38.3891 19.2123C38.3631 19.2638 38.35 19.3208 38.35 19.3833V21.6873L37.7533 22.0428ZM31.1349 31.026C30.9445 31.1394 30.7757 31.2021 30.6284 31.2141C30.482 31.2246 30.3665 31.1878 30.2819 31.1038C30.1973 31.0197 30.1542 30.8906 30.1525 30.7164L30.7602 30.3543C30.7627 30.4163 30.7802 30.4622 30.8127 30.4921C30.8452 30.521 30.8896 30.5324 30.9457 30.5264C31.0018 30.5205 31.0657 30.4961 31.1373 30.4535C31.2089 30.4108 31.2719 30.3586 31.3264 30.2968C31.3818 30.2335 31.4249 30.1666 31.4558 30.0961C31.4867 30.0247 31.5018 29.9551 31.5009 29.8874C31.5018 29.8187 31.4851 29.768 31.4509 29.7354C31.4167 29.7027 31.3683 29.6904 31.3057 29.6983C31.2439 29.7058 31.1707 29.7347 31.086 29.7852L30.8432 29.9298V29.4298L31.086 29.2852C31.1601 29.241 31.2252 29.1881 31.2813 29.1262C31.3382 29.0639 31.3826 28.9977 31.4143 28.9276C31.446 28.8567 31.4615 28.7878 31.4607 28.721C31.4615 28.6552 31.4481 28.6059 31.4204 28.5732C31.3936 28.539 31.3557 28.5227 31.3069 28.5243C31.2589 28.5254 31.2032 28.5449 31.1397 28.5827C31.073 28.6225 31.0124 28.6723 30.9579 28.7322C30.9042 28.7917 30.8615 28.856 30.8298 28.9251C30.7981 28.9941 30.7814 29.0623 30.7798 29.1296L30.2026 29.4735C30.2042 29.2992 30.2457 29.122 30.327 28.9419C30.4084 28.7609 30.519 28.5913 30.6589 28.4331C30.7997 28.2744 30.96 28.1415 31.1397 28.0344C31.3187 27.9278 31.4761 27.8704 31.612 27.8624C31.7478 27.8544 31.8536 27.8908 31.9293 27.9717C32.0049 28.0516 32.0427 28.1706 32.0427 28.3288C32.0436 28.4921 31.9976 28.6544 31.9048 28.8158C31.8129 28.9766 31.6946 29.1125 31.5497 29.2234V29.2461C31.7434 29.1572 31.8894 29.1432 31.9878 29.2038C32.0871 29.264 32.1363 29.3838 32.1355 29.5633C32.1355 29.7319 32.0928 29.9069 32.0074 30.0885C31.9227 30.2686 31.8048 30.4412 31.6535 30.6062C31.503 30.7697 31.3301 30.9096 31.1349 31.026ZM32.4457 29.7222V29.1739L33.4695 26.686L33.8881 26.4367V27.181L33.6453 27.3257L33.0461 28.7878V28.8105L34.5287 27.9271V28.4811L32.4457 29.7222ZM33.6526 29.4861V28.8355L33.6648 28.5882V26.5697L34.2298 26.2331V29.1422L33.6526 29.4861ZM36.4867 26.2819L35.9388 26.6253C35.9331 26.5833 35.9176 26.5522 35.8924 26.5322C35.8672 26.5113 35.8342 26.503 35.7936 26.5073C35.7537 26.5102 35.7073 26.5275 35.6545 26.559C35.5853 26.6002 35.5263 26.6514 35.4775 26.7127C35.4295 26.7735 35.4059 26.8311 35.4067 26.8855C35.4059 26.9286 35.4206 26.9568 35.4507 26.9701C35.4816 26.983 35.5365 26.9754 35.6154 26.9473L35.9766 26.8116C36.1637 26.7418 36.3028 26.728 36.3939 26.7703C36.4859 26.8122 36.5322 26.9124 36.533 27.071C36.5322 27.2211 36.494 27.3741 36.4183 27.53C36.3435 27.6853 36.241 27.8326 36.1108 27.9717C35.9807 28.1099 35.8318 28.2289 35.6642 28.3287C35.3966 28.4882 35.1855 28.55 35.0309 28.5143C34.8771 28.4771 34.7893 28.3571 34.7673 28.1543L35.3567 27.7861C35.3697 27.8579 35.4035 27.8984 35.458 27.9075C35.5125 27.9167 35.582 27.8961 35.6667 27.8457C35.7431 27.8002 35.8054 27.7465 35.8534 27.6848C35.9014 27.623 35.9258 27.5644 35.9266 27.509C35.9258 27.4603 35.907 27.4321 35.8704 27.4246C35.8338 27.4161 35.7765 27.4266 35.6984 27.4561L35.3713 27.5785C35.1834 27.6507 35.0435 27.6607 34.9516 27.6084C34.8596 27.5552 34.8141 27.4451 34.8149 27.2779C34.8141 27.1326 34.8474 26.9882 34.915 26.8447C34.9825 26.7003 35.0785 26.5636 35.2029 26.4345C35.3274 26.3054 35.4743 26.1905 35.6435 26.0896C35.8973 25.9384 36.0974 25.8812 36.2438 25.918C36.3903 25.9539 36.4712 26.0752 36.4867 26.2819ZM37.3552 27.3169C37.2356 27.3882 37.1295 27.4282 37.0367 27.4371C36.9448 27.4445 36.872 27.4169 36.8183 27.3542C36.7654 27.29 36.739 27.186 36.739 27.042C36.739 26.9208 36.7573 26.8077 36.7939 26.7025C36.8305 26.5974 36.8809 26.4996 36.9452 26.4092C37.0095 26.3188 37.0835 26.2354 37.1673 26.159C37.2511 26.0816 37.3406 26.0098 37.4357 25.9437C37.5423 25.8688 37.6281 25.8058 37.6932 25.7547C37.7583 25.7027 37.8055 25.6561 37.8348 25.615C37.8649 25.5724 37.8799 25.5289 37.8799 25.4844V25.4773C37.8799 25.4044 37.8584 25.3609 37.8153 25.3468C37.7721 25.3327 37.714 25.3475 37.6408 25.3911C37.5618 25.4381 37.4984 25.4958 37.4504 25.5642C37.4024 25.6326 37.3719 25.7057 37.3589 25.7835L36.8085 26.0887C36.8248 25.9464 36.8667 25.8031 36.9342 25.6587C37.0026 25.5128 37.0961 25.3747 37.2149 25.2443C37.3345 25.1124 37.4781 24.9966 37.6456 24.8967C37.7652 24.8255 37.8755 24.7764 37.9763 24.7494C38.0772 24.7215 38.1651 24.7165 38.2399 24.7344C38.3148 24.7514 38.3725 24.7927 38.4132 24.8584C38.4547 24.9237 38.4754 25.0141 38.4754 25.1296V26.6125L37.9141 26.947V26.643L37.8995 26.6517C37.8661 26.7455 37.8234 26.8334 37.7713 26.9156C37.7201 26.9973 37.6595 27.0717 37.5895 27.139C37.5204 27.2057 37.4423 27.2651 37.3552 27.3169ZM37.5395 26.7526C37.6037 26.7143 37.6615 26.6647 37.7128 26.6039C37.7648 26.5426 37.8063 26.4762 37.8372 26.4047C37.8681 26.3323 37.8836 26.2606 37.8836 26.1896V25.9822C37.8665 26.0028 37.8458 26.0246 37.8214 26.0477C37.7978 26.0703 37.7717 26.0938 37.7433 26.1184C37.7148 26.1429 37.6855 26.167 37.6554 26.1906C37.6253 26.2142 37.5964 26.2367 37.5688 26.2579C37.5126 26.3017 37.4646 26.3464 37.4248 26.392C37.3857 26.437 37.3556 26.4833 37.3345 26.531C37.3141 26.5772 37.304 26.624 37.304 26.6713C37.304 26.7433 37.3259 26.7851 37.3699 26.7968C37.4146 26.8081 37.4711 26.7933 37.5395 26.7526ZM30.7273 35.6566L30.7297 34.827L30.8127 34.7776L31.3399 33.6822L32.0159 33.2794L31.2325 34.8655L31.0751 34.9593L30.7273 35.6566ZM30.1891 36.5497V33.6406L30.7859 33.285V36.1941L30.1891 36.5497ZM31.3533 35.856L30.8627 35.2421L31.2557 34.5151L32.0427 35.4453L31.3533 35.856ZM32.8368 35.0034C32.6985 35.0858 32.5728 35.119 32.4598 35.103C32.3467 35.0871 32.2564 35.0159 32.1889 34.8894C32.1213 34.763 32.0876 34.5762 32.0876 34.329C32.0876 34.0724 32.1226 33.8404 32.1925 33.633C32.2625 33.4256 32.354 33.2484 32.4671 33.1015C32.581 32.9541 32.7034 32.8414 32.8344 32.7633C32.9328 32.7047 33.017 32.6744 33.087 32.6725C33.157 32.6696 33.2147 32.6854 33.2603 32.7198C33.3058 32.7542 33.3404 32.7976 33.364 32.8498L33.3762 32.8425V31.7417L33.9729 31.3861V34.2952L33.3823 34.6471V34.2934L33.364 34.3043C33.3388 34.3866 33.303 34.4709 33.2566 34.5572C33.2102 34.6436 33.1521 34.7256 33.0821 34.8033C33.013 34.8804 32.9312 34.9471 32.8368 35.0034ZM33.0443 34.3386C33.1167 34.2954 33.1785 34.2349 33.2298 34.157C33.281 34.0782 33.3205 33.987 33.3481 33.8834C33.3758 33.7798 33.3896 33.6693 33.3896 33.5518C33.3896 33.4325 33.3758 33.338 33.3481 33.2683C33.3213 33.1982 33.2818 33.1554 33.2298 33.14C33.1785 33.1241 33.1167 33.1378 33.0443 33.1809C32.9703 33.225 32.9076 33.286 32.8564 33.3639C32.8051 33.4418 32.7661 33.5318 32.7392 33.634C32.7132 33.7357 32.7002 33.8452 32.7002 33.9626C32.7002 34.0801 32.7136 34.1743 32.7404 34.2455C32.7673 34.3166 32.8059 34.3613 32.8564 34.3795C32.9076 34.3963 32.9703 34.3827 33.0443 34.3386ZM35.501 30.4757V33.3848L34.8982 33.7439V31.4911L34.8835 31.4998L34.3247 32.2305V31.6226L34.9409 30.8094L35.501 30.4757ZM36.6624 29.7837V32.6928L36.0584 33.0527V30.1436L36.6624 29.7837ZM38.1923 28.8721V31.7812L37.5895 32.1404V29.8876L37.5749 29.8963L37.016 30.627V30.019L37.6322 29.2059L38.1923 28.8721Z" fill="white"/>
<rect x="1" y="17.2291" width="28" height="22.7708" stroke="white" stroke-width="2"/>
<rect x="13" y="9.54156" width="27" height="22.7708" stroke="white" stroke-width="2"/>
<path d="M1 16.2207L6.5 12.6075L11.5 9.39587" stroke="white" stroke-width="2" stroke-linecap="round"/>
<path d="M29 16.6221L40 9.73749" stroke="white" stroke-width="2" stroke-linecap="round"/>
<path d="M29.5 39.975L40 32.8854" stroke="white" stroke-width="2" stroke-linecap="round"/>
<path d="M1 39.6846L12 32.4584" stroke="white" stroke-width="2" stroke-linecap="round"/>
<path d="M28.0133 6.70134C27.733 6.89747 27.4838 7.07774 27.249 7.24762C26.9297 7.47861 26.6369 7.69039 26.3287 7.89671C25.8145 8.24085 25.4049 8.4642 25.0484 8.57739C24.7241 8.6804 24.4777 8.68246 24.2296 8.60708C23.9494 8.52197 23.5446 8.29984 23.0082 7.75506C22.5656 7.30544 22.4113 6.97308 22.3716 6.73537C22.3337 6.50874 22.3838 6.27419 22.5655 5.99031C22.9777 5.34666 23.8843 4.69345 25.1585 3.80178C25.4388 3.60568 25.6879 3.42543 25.9228 3.25556C26.2421 3.02456 26.5348 2.81276 26.8431 2.60643C27.3573 2.26229 27.7669 2.03895 28.1233 1.92576C28.4477 1.82275 28.6941 1.82069 28.9423 1.89607C29.2224 1.98119 29.6272 2.2033 30.1636 2.74807C30.6999 3.29283 30.8843 3.66915 30.9319 3.91699C30.9741 4.13649 30.9263 4.34027 30.7465 4.5901C30.5489 4.86463 30.213 5.16292 29.7171 5.52561C29.4198 5.74305 29.119 5.94664 28.7908 6.16869C28.5495 6.33198 28.2935 6.50524 28.0133 6.70134Z" stroke="#FF0000" stroke-width="2"/>
<path d="M17.3928 3.42556C17.6966 3.59148 17.9747 3.73792 18.2371 3.87617C18.595 4.06467 18.924 4.23795 19.25 4.4246C19.7946 4.73639 20.1754 5.0025 20.4148 5.26077C20.6353 5.49859 20.7095 5.69973 20.6985 5.9166C20.6862 6.15926 20.5603 6.54265 20.1082 7.13101C19.7368 7.61439 19.4145 7.83113 19.1652 7.93093C18.9245 8.02725 18.6416 8.05903 18.2569 7.99606C17.3938 7.85478 16.3737 7.31419 14.9869 6.55685C14.6831 6.39095 14.4051 6.24452 14.1427 6.10629C13.7847 5.91776 13.4557 5.74447 13.1297 5.55781C12.5851 5.24602 12.2044 4.9799 11.9649 4.72164C11.7444 4.48381 11.6703 4.28267 11.6812 4.06579C11.6935 3.82312 11.8195 3.43974 12.2715 2.85139C12.7236 2.26304 13.087 2.00939 13.3447 1.90073C13.575 1.80362 13.823 1.77843 14.1706 1.85085C14.5481 1.92948 14.9918 2.11361 15.552 2.40513C15.8874 2.57966 16.2095 2.76193 16.5599 2.96023C16.8168 3.10564 17.089 3.25966 17.3928 3.42556Z" stroke="#FF0000" stroke-width="2"/>
<path d="M23.8283 9.63512C23.8283 10.3114 23.8275 10.8975 23.7803 11.4203C23.733 11.9436 23.6442 12.3282 23.5094 12.6104C23.3859 12.8687 23.2197 13.0521 22.9606 13.1868C22.6804 13.3326 22.2291 13.4526 21.495 13.4526C20.9052 13.4526 20.5139 13.3415 20.248 13.1964C19.9898 13.0554 19.7923 12.8511 19.6345 12.5622C19.29 11.9316 19.1616 10.9552 19.1616 9.63512C19.1616 9.31546 19.1561 9.03589 19.151 8.77548C19.1441 8.42803 19.1379 8.11469 19.1464 7.78575C19.1604 7.24315 19.2169 6.8718 19.3251 6.60773C19.4167 6.38421 19.5501 6.22176 19.8116 6.09191C20.1099 5.94385 20.6214 5.81763 21.495 5.81763C22.3685 5.81763 22.88 5.94385 23.1783 6.09191C23.4398 6.22176 23.5733 6.38421 23.6648 6.60772C23.773 6.8718 23.8295 7.24315 23.8435 7.78575C23.852 8.11469 23.8458 8.42802 23.8389 8.77545C23.8338 9.03587 23.8283 9.31545 23.8283 9.63512Z" stroke="white" stroke-width="2"/>
</svg>
