<svg width="25" height="26" viewBox="0 0 25 26" fill="none" xmlns="http://www.w3.org/2000/svg">
<path d="M12.5 0.0107422C19.4039 0.0107422 25 5.60684 25 12.5107C25 19.4146 19.4039 25.0107 12.5 25.0107C5.59609 25.0107 0 19.4146 0 12.5107C0 5.60684 5.59609 0.0107422 12.5 0.0107422Z" fill="#8F5AE8"/>
<path d="M16.777 9.62833C16.6142 9.54154 16.4325 9.49614 16.2479 9.49614C16.0634 9.49614 15.8817 9.54154 15.7188 9.62833L13.3333 11.0391L11.6669 11.9652L9.28132 13.3768C9.11846 13.4636 8.93676 13.509 8.75222 13.509C8.56768 13.509 8.38597 13.4636 8.22312 13.3768L6.32722 12.2734C6.17117 12.1835 6.04066 12.0552 5.94801 11.9007C5.85536 11.7462 5.80363 11.5707 5.79773 11.3906V9.18829C5.79436 9.00633 5.8422 8.82708 5.93578 8.67099C6.02937 8.5149 6.16494 8.38825 6.32702 8.30548L8.22312 7.24747C8.38586 7.16031 8.56761 7.11471 8.75222 7.11471C8.93683 7.11471 9.11858 7.16031 9.28132 7.24747L11.1772 8.30567C11.3332 8.39568 11.4637 8.52399 11.5563 8.67846C11.6489 8.83293 11.7006 9.00847 11.7065 9.18849V10.5983L13.3333 9.62853V8.26212C13.3377 8.08105 13.2913 7.90237 13.1993 7.74634C13.1073 7.5903 12.9735 7.46315 12.813 7.37931L9.32468 5.35157C9.16194 5.26442 8.98019 5.21881 8.79558 5.21881C8.61097 5.21881 8.42922 5.26442 8.26648 5.35157L4.73952 7.37931C4.56344 7.44771 4.41335 7.56977 4.3105 7.72822C4.20765 7.88666 4.15727 8.07345 4.16648 8.26212V12.3619C4.1639 12.5431 4.21214 12.7215 4.30572 12.8767C4.39931 13.0319 4.5345 13.1578 4.69597 13.24L8.22312 15.2727C8.38597 15.3595 8.56768 15.4049 8.75222 15.4049C8.93676 15.4049 9.11846 15.3595 9.28132 15.2727L11.6669 13.9055L13.2981 12.9358L15.6755 11.5731C15.8383 11.4863 16.02 11.4409 16.2046 11.4409C16.3891 11.4409 16.5708 11.4863 16.7337 11.5731L18.6296 12.6313C18.7855 12.7213 18.9159 12.8496 19.0084 13.0041C19.1009 13.1586 19.1525 13.3341 19.1583 13.5141V15.6746C19.1617 15.8564 19.1139 16.0355 19.0204 16.1915C18.9269 16.3474 18.7915 16.4739 18.6296 16.5566L16.7337 17.6582C16.5709 17.7454 16.3892 17.791 16.2046 17.791C16.02 17.791 15.8382 17.7454 15.6755 17.6582L13.7796 16.6C13.6236 16.5102 13.4931 16.3821 13.4004 16.2278C13.3078 16.0735 13.256 15.8981 13.2501 15.7182V14.3022L11.6669 15.2275V16.6375C11.6634 16.8194 11.7111 16.9987 11.8046 17.1548C11.8981 17.3109 12.0336 17.4375 12.1956 17.5203L15.7227 19.5479C15.8856 19.635 16.0675 19.6806 16.2522 19.6806C16.4369 19.6806 16.6188 19.635 16.7817 19.5479L20.3087 17.5199C20.4637 17.4296 20.5932 17.3013 20.685 17.1472C20.7768 16.9931 20.828 16.8182 20.8337 16.6389V12.5373C20.837 12.3554 20.7892 12.1763 20.6955 12.0203C20.6019 11.8643 20.4663 11.7378 20.3042 11.6553L16.777 9.62833Z" fill="white"/>
</svg>
