<svg width="703" height="479" viewBox="0 0 703 479" fill="none" xmlns="http://www.w3.org/2000/svg">
<g filter="url(#filter0_d_8_2)">
<path d="M110.37 218.724C332.615 150.802 260.598 175.851 308.103 148.497C353.451 122.384 376.381 148.497 414.323 148.497C421.698 147.509 516.956 130.041 556.495 168.211C596.033 206.381 784.46 227.131 661.489 262.319C538.519 297.508 676.156 292.598 672.52 315.92C670.105 331.411 661.489 345.38 633.253 352.336C608.404 358.457 583.828 337.215 569.974 363.151C556.12 389.087 602.549 423.937 500.704 413.806C398.859 403.675 458.019 370.61 370.402 399.126C282.785 427.643 88.7167 422.713 148.364 380.568C208.01 338.424 46.4819 385.03 30.9028 337.998C87.8997 279.095 -111.876 286.646 110.37 218.724Z" fill="url(#paint0_radial_8_2)" fill-opacity="0.42" shape-rendering="crispEdges"/>
</g>
<g filter="url(#filter1_f_8_2)">
<path d="M169.351 279.37C170.664 279.316 171.966 279.612 173.112 280.227L257.202 325.316C263.475 328.68 261.191 337.881 254.008 338.178L175.988 341.41C174.642 341.465 173.308 341.152 172.142 340.506L90.5532 295.313C84.3736 291.89 86.702 282.793 93.8333 282.498L169.351 279.37Z" fill="url(#paint1_linear_8_2)" fill-opacity="0.76"/>
</g>
<path d="M214.667 319.061C213.513 319.326 212.307 319.102 211.361 318.446L139.541 268.635C136.698 266.663 137.734 262.336 141.222 261.62L237.65 241.817C238.75 241.591 239.888 241.806 240.797 242.411L312.256 289.973C315.131 291.887 314.195 296.216 310.734 297.01L214.667 319.061Z" fill="url(#paint2_linear_8_2)"/>
<path d="M211.667 318.047L139.847 268.236C137.359 266.511 138.266 262.725 141.317 262.098L237.746 242.295C238.708 242.097 239.703 242.285 240.499 242.815L311.958 290.377C314.474 292.052 313.655 295.84 310.627 296.535L214.56 318.586C213.55 318.818 212.494 318.621 211.667 318.047Z" stroke="#FFF4F4" stroke-opacity="0.44"/>
<path d="M236.555 245.613C236.069 245.309 235.749 244.815 235.676 244.259L232.672 221.534C232.453 219.878 234.371 218.694 235.826 219.586L315.121 268.195C315.691 268.544 316.034 269.149 316.034 269.804L316.034 291.771C316.034 293.34 314.202 294.313 312.847 293.463L236.555 245.613Z" fill="url(#paint3_linear_8_2)"/>
<path d="M236.182 244.186L233.179 221.461C233.014 220.219 234.452 219.331 235.544 220L314.839 268.609C315.266 268.871 315.523 269.324 315.523 269.816L315.523 291.782C315.523 292.96 314.15 293.689 313.133 293.051L236.841 245.202C236.477 244.974 236.237 244.604 236.182 244.186Z" stroke="#FFF4F4" stroke-opacity="0.44"/>
<path d="M125.816 244.05C125.408 241.936 126.87 239.864 129.085 239.418L230.682 218.992C233.004 218.525 235.208 220.031 235.483 222.273L237.793 241.07C238.045 243.122 236.58 245.046 234.451 245.456L133.972 264.823C131.762 265.249 129.651 263.893 129.244 261.787L125.816 244.05Z" fill="url(#paint4_linear_8_2)"/>
<path d="M129.178 239.897L230.775 219.471C232.807 219.062 234.735 220.38 234.976 222.342L237.286 241.139C237.507 242.935 236.225 244.617 234.362 244.976L133.883 264.343C131.949 264.716 130.102 263.53 129.746 261.687L126.318 243.95C125.961 242.1 127.24 240.287 129.178 239.897Z" stroke="#FFF4F4" stroke-opacity="0.44"/>
<path d="M207.193 293.007L316.425 268.674L317.571 285.651C317.998 291.978 313.483 297.749 306.993 299.171L213.378 319.692C211.599 320.082 209.896 318.919 209.716 317.192L207.193 293.007Z" fill="url(#paint5_linear_8_2)"/>
<path d="M210.224 317.132L207.747 293.383L315.954 269.279L317.062 285.694C317.472 291.778 313.131 297.327 306.89 298.695L213.275 319.215C211.793 319.54 210.374 318.571 210.224 317.132Z" stroke="#FFF4F4" stroke-opacity="0.44"/>
<path d="M129.839 264.011C129.405 263.713 129.116 263.261 129.034 262.753L125.803 242.69C125.53 240.993 127.52 239.762 128.992 240.717L208.902 292.525C209.375 292.832 209.685 293.319 209.756 293.867L212.734 316.727C212.955 318.428 210.937 319.605 209.494 318.616L129.839 264.011Z" fill="url(#paint6_linear_8_2)"/>
<path d="M129.539 262.667L126.308 242.604C126.103 241.332 127.595 240.408 128.699 241.124L208.609 292.932C208.964 293.162 209.196 293.528 209.25 293.939L212.227 316.799C212.393 318.075 210.88 318.957 209.798 318.216L130.142 263.61C129.817 263.387 129.6 263.048 129.539 262.667Z" stroke="#FFF4F4" stroke-opacity="0.44"/>
<ellipse cx="228.213" cy="302.598" rx="4.55889" ry="3.91386" fill="#D9D9D9"/>
<ellipse cx="269.243" cy="288.574" rx="3.50683" ry="2.93539" fill="#D9D9D9"/>
<ellipse cx="206.821" cy="237.041" rx="4.2082" ry="3.5877" fill="#D9D9D9"/>
<ellipse cx="269.243" cy="249.435" rx="3.50683" ry="2.93539" fill="#D9D9D9"/>
<ellipse cx="151.063" cy="263.46" rx="4.55889" ry="3.91386" fill="#D9D9D9"/>
<ellipse cx="180.169" cy="285.312" rx="4.2082" ry="3.5877" fill="#F1C529"/>
<g filter="url(#filter2_f_8_2)">
<path d="M414.981 293.398C416.263 292.369 417.88 291.806 419.551 291.806L545.469 291.806C552.032 291.806 555.111 299.609 550.198 303.794L513.456 335.09C512.151 336.202 510.469 336.815 508.726 336.815L380.55 336.815C373.882 336.815 370.861 328.802 375.98 324.695L414.981 293.398Z" fill="url(#paint7_linear_8_2)" fill-opacity="0.76"/>
</g>
<path d="M344.329 287.444C374.13 288.742 296.943 213.461 298.264 238.771C299.585 264.082 349.444 245.216 349.444 245.216L389.876 224.086C389.876 224.086 442.225 194.58 466.597 198.097C482.486 200.39 475.832 253.848 503.342 218.448C530.853 183.048 472.605 167.573 472.605 167.573" stroke="url(#paint8_linear_8_2)" stroke-width="14"/>
<path d="M389.317 373.468C389.317 373.468 427.547 356.255 430.504 333.134C433.462 310.013 449.439 302.216 449.439 302.216C449.439 302.216 454.136 299.762 449.007 278.377C443.879 256.993 424.671 261.222 424.671 261.222C424.671 261.222 417.304 249.029 415.269 235.433C413.234 221.836 397.87 213.096 391.899 196.751C387.36 184.327 397.028 183.006 385.266 163.982C373.503 144.958 419.553 177.596 410.197 142.101" stroke="url(#paint9_linear_8_2)" stroke-width="14"/>
<path d="M303.014 240.273C340.887 260.169 299.507 123.836 281.271 154.494C263.036 185.153 342.992 193.633 342.992 193.633L412.427 193.633C412.427 193.633 504.024 191.101 533.062 210.267C551.992 222.762 501.15 281.695 564.974 256.907C628.798 232.119 564.974 177.978 564.974 177.978" stroke="url(#paint10_linear_8_2)" stroke-width="14"/>
<path d="M293.896 369.43C293.896 369.43 357.37 372.692 379.462 347.252C401.555 321.812 428.558 322.464 428.558 322.464C428.558 322.464 436.624 322.464 446.794 294.089C456.963 265.713 428.558 258.864 428.558 258.864C428.558 258.864 428.558 239.947 436.624 222.661C444.69 205.374 431.528 185.6 436.624 162.648C440.497 145.202 454.158 149.602 453.807 119.922C453.457 90.2418 487.824 157.104 503.605 109.485" stroke="url(#paint11_linear_8_2)" stroke-width="14"/>
<rect width="119.727" height="108.161" rx="4" transform="matrix(0.925695 -0.378271 0.427144 0.904184 351.44 190.45)" fill="url(#paint12_linear_8_2)"/>
<rect x="0.676419" y="0.262957" width="118.727" height="107.161" rx="3.5" transform="matrix(0.925695 -0.378271 0.427144 0.904184 351.378 190.731)" stroke="white" stroke-opacity="0.37"/>
<path d="M398.189 287.492C398.579 286.584 399.318 285.865 400.258 285.481L498.7 245.255C501.978 243.915 505.46 247.09 504.251 250.317L492.186 282.515C491.804 283.534 490.99 284.337 489.942 284.73L391.12 321.747C387.771 323.001 384.373 319.673 385.744 316.481L398.189 287.492Z" fill="url(#paint13_linear_8_2)"/>
<path d="M400.472 285.933L498.914 245.707C501.782 244.535 504.829 247.313 503.771 250.136L491.706 282.335C491.372 283.226 490.66 283.929 489.742 284.273L390.92 321.29C387.99 322.387 385.017 319.475 386.216 316.682L398.661 287.693C399.002 286.898 399.649 286.269 400.472 285.933Z" stroke="white" stroke-opacity="0.37"/>
<path d="M444.816 190.49C444.335 189.473 444.316 188.323 444.761 187.323L459.522 154.224C460.899 151.136 465.497 151.222 466.982 154.364L506.85 238.758C507.308 239.728 507.348 240.821 506.961 241.79L493.033 276.652C491.753 279.856 487.031 279.852 485.516 276.645L444.816 190.49Z" fill="url(#paint14_linear_8_2)"/>
<path d="M445.231 187.53L459.991 154.431C461.196 151.728 465.22 151.804 466.519 154.554L506.387 238.947C506.788 239.796 506.823 240.752 506.484 241.6L492.556 276.462C491.436 279.266 487.305 279.262 485.979 276.456L445.279 190.301C444.858 189.411 444.841 188.405 445.231 187.53Z" stroke="white" stroke-opacity="0.37"/>
<path d="M334.282 233.332C333.791 232.291 333.782 231.113 334.258 230.099L351.103 194.246C352.55 191.164 357.19 191.362 358.584 194.565L397.314 283.597C397.725 284.54 397.746 285.586 397.374 286.517L383.42 321.443C382.14 324.648 377.419 324.644 375.904 321.437L334.282 233.332Z" fill="url(#paint15_linear_8_2)"/>
<path d="M334.724 230.314L351.569 194.461C352.835 191.764 356.895 191.937 358.114 194.74L396.845 283.772C397.204 284.597 397.223 285.512 396.898 286.327L382.944 321.253C381.823 324.057 377.692 324.054 376.367 321.248L334.745 233.143C334.315 232.232 334.307 231.201 334.724 230.314Z" stroke="white" stroke-opacity="0.37"/>
<path d="M335.933 235.037C334.989 233.04 335.882 230.743 337.927 229.908L441.352 187.645C443.397 186.809 445.82 187.751 446.764 189.748L487.838 276.696C489.725 280.691 487.94 285.284 483.85 286.955L387.83 326.192C383.74 327.863 378.895 325.98 377.008 321.985L335.933 235.037Z" fill="url(#paint16_linear_8_2)"/>
<path d="M338.141 230.36L441.566 188.097C443.355 187.366 445.475 188.19 446.301 189.937L487.375 276.885C489.145 280.63 487.47 284.936 483.636 286.503L387.617 325.74C383.782 327.307 379.24 325.541 377.471 321.796L336.396 234.848C335.57 233.101 336.351 231.091 338.141 230.36Z" stroke="white" stroke-opacity="0.37"/>
<ellipse cx="383.671" cy="281.369" rx="4.55889" ry="3.91386" fill="#F1C529"/>
<ellipse cx="420.142" cy="269.301" rx="5.96162" ry="4.89232" fill="#D9D9D9"/>
<ellipse cx="452.405" cy="253.972" rx="3.15615" ry="2.60924" fill="#F1C529"/>
<ellipse cx="449.249" cy="285.609" rx="3.50683" ry="2.93539" fill="#D9D9D9"/>
<ellipse cx="411.726" cy="300.938" rx="4.55889" ry="3.91386" fill="#D9D9D9"/>
<ellipse cx="432.065" cy="208.962" rx="3.85752" ry="3.26155" fill="#D9D9D9"/>
<ellipse rx="6.09399" ry="5.53704" transform="matrix(0.759449 0.652924 -0.274771 0.943189 466.383 188.81)" fill="#D9D9D9"/>
<ellipse rx="2.55561" ry="2.32204" transform="matrix(0.759449 0.652924 -0.274771 0.943189 480.013 210.769)" fill="#D9D9D9"/>
<ellipse rx="4.40805" ry="4.00519" transform="matrix(0.759449 0.652924 -0.274771 0.943189 486.564 244.972)" fill="#F1C529"/>
<ellipse cx="396.997" cy="222.009" rx="3.85752" ry="3.26155" fill="#F1C529"/>
<ellipse cx="425.753" cy="235.707" rx="4.55889" ry="3.91386" fill="#D9D9D9"/>
<path d="M362.279 120.901L368.42 138.705H388.294L372.216 149.708L378.357 167.512L362.279 156.509L346.201 167.512L352.342 149.708L336.265 138.705H356.138L362.279 120.901Z" fill="url(#paint17_linear_8_2)" stroke="white"/>
<path d="M162.379 292.985L160.704 307.071L173.699 312.187L159.668 315.777L157.992 329.863L150.996 317.995L136.965 321.584L146.673 310.66L139.677 298.792L152.672 303.909L162.379 292.985Z" fill="url(#paint18_linear_8_2)" stroke="white"/>
<path d="M378.739 223.078L377.064 237.164L390.059 242.28L376.028 245.869L374.352 259.955L367.356 248.088L353.325 251.677L363.033 240.753L356.037 228.885L369.032 234.002L378.739 223.078Z" fill="url(#paint19_linear_8_2)" stroke="white"/>
<path d="M521.854 156.817L520.811 168.687L532.776 173.397L520.167 176.023L519.124 187.893L512.374 177.645L499.765 180.271L508.202 171.312L501.452 161.065L513.416 165.775L521.854 156.817Z" fill="url(#paint20_linear_8_2)" stroke="white"/>
<path d="M272.471 169.537L270.795 183.623L283.79 188.74L269.759 192.329L268.083 206.415L261.087 194.547L247.056 198.137L256.764 187.213L249.768 175.345L262.763 180.461L272.471 169.537Z" fill="url(#paint21_linear_8_2)" stroke="white"/>
<g filter="url(#filter3_d_8_2)">
<path d="M480.993 327.257L473.89 339.047L490.609 340.27L469.5 346.333L462.397 358.122L456.454 350.08L435.344 356.142L452.781 345.109L446.837 337.066L463.557 338.29L480.993 327.257Z" fill="url(#paint22_linear_8_2)"/>
<path d="M480.993 327.257L473.89 339.047L490.609 340.27L469.5 346.333L462.397 358.122L456.454 350.08L435.344 356.142L452.781 345.109L446.837 337.066L463.557 338.29L480.993 327.257Z" stroke="white"/>
</g>
<g filter="url(#filter4_d_8_2)">
<path d="M598.109 320.497L582.823 327.682L598.309 339.108L573.376 332.122L558.09 339.307L557.966 327.805L533.033 320.819L557.89 320.696L557.766 309.194L573.252 320.62L598.109 320.497Z" fill="url(#paint23_linear_8_2)"/>
<path d="M598.109 320.497L582.823 327.682L598.309 339.108L573.376 332.122L558.09 339.307L557.966 327.805L533.033 320.819L557.89 320.696L557.766 309.194L573.252 320.62L598.109 320.497Z" stroke="white"/>
</g>
<g filter="url(#filter5_d_8_2)">
<path d="M382.154 357.568L370.141 362.893L381.18 371.037L362.717 366.183L350.704 371.508L351.306 363.184L332.843 358.33L351.678 358.039L352.28 349.714L363.319 357.859L382.154 357.568Z" fill="url(#paint24_linear_8_2)"/>
<path d="M382.154 357.568L370.141 362.893L381.18 371.037L362.717 366.183L350.704 371.508L351.306 363.184L332.843 358.33L351.678 358.039L352.28 349.714L363.319 357.859L382.154 357.568Z" stroke="white"/>
</g>
<path d="M80.9545 163.71C101.037 163.71 117.315 180.013 117.315 200.126C117.315 220.239 101.037 236.542 80.9545 236.542C60.8724 236.542 44.5945 220.239 44.5945 200.126C44.5945 180.013 60.8724 163.71 80.9545 163.71Z" fill="#8F5AE8"/>
<path d="M93.3954 191.729C92.9217 191.476 92.3931 191.344 91.8563 191.344C91.3195 191.344 90.791 191.476 90.3173 191.729L83.3782 195.839L78.531 198.537L71.5919 202.649C71.1182 202.902 70.5896 203.034 70.0528 203.034C69.516 203.034 68.9875 202.902 68.5138 202.649L62.999 199.435C62.5451 199.173 62.1654 198.799 61.8959 198.349C61.6264 197.899 61.476 197.387 61.4588 196.863V190.447C61.449 189.917 61.5882 189.394 61.8604 188.94C62.1326 188.485 62.5269 188.116 62.9984 187.875L68.5138 184.793C68.9872 184.539 69.5158 184.406 70.0528 184.406C70.5898 184.406 71.1185 184.539 71.5919 184.793L77.1067 187.875C77.5605 188.138 77.94 188.511 78.2094 188.962C78.4788 189.412 78.6292 189.923 78.6463 190.447V194.554L83.3782 191.729V187.749C83.391 187.221 83.256 186.701 82.9885 186.246C82.721 185.791 82.3317 185.421 81.8647 185.177L71.718 179.269C71.2446 179.015 70.7159 178.883 70.1789 178.883C69.642 178.883 69.1133 179.015 68.6399 179.269L58.3807 185.177C57.8685 185.376 57.4319 185.732 57.1327 186.193C56.8336 186.655 56.687 187.199 56.7138 187.749V199.692C56.7063 200.22 56.8466 200.74 57.1188 201.192C57.3911 201.644 57.7843 202.011 58.254 202.251L68.5138 208.172C68.9875 208.425 69.516 208.557 70.0528 208.557C70.5896 208.557 71.1182 208.425 71.5919 208.172L78.531 204.189L83.2759 201.364L90.1912 197.394C90.6649 197.141 91.1934 197.009 91.7302 197.009C92.267 197.009 92.7955 197.141 93.2693 197.394L98.7841 200.477C99.2377 200.739 99.617 201.113 99.8861 201.563C100.155 202.013 100.305 202.525 100.322 203.049V209.343C100.332 209.873 100.193 210.395 99.9209 210.849C99.649 211.303 99.2551 211.672 98.7841 211.913L93.2693 215.122C92.7959 215.376 92.2672 215.509 91.7302 215.509C91.1932 215.509 90.6645 215.376 90.1912 215.122L84.6764 212.039C84.2226 211.777 83.843 211.404 83.5735 210.955C83.304 210.505 83.1535 209.994 83.1362 209.47V205.345L78.531 208.041V212.148C78.5208 212.678 78.6596 213.2 78.9316 213.655C79.2035 214.11 79.5976 214.479 80.0689 214.72L90.3286 220.627C90.8024 220.881 91.3315 221.014 91.8688 221.014C92.4062 221.014 92.9352 220.881 93.409 220.627L103.668 214.719C104.119 214.456 104.496 214.082 104.763 213.633C105.03 213.184 105.179 212.675 105.195 212.152V200.203C105.205 199.673 105.066 199.152 104.794 198.697C104.521 198.243 104.127 197.874 103.655 197.634L93.3954 191.729Z" fill="white"/>
<path d="M225.962 144.801L217.778 197.229L207.111 175.057L225.962 144.801ZM218.246 165.566L212.186 175.26L215.608 182.373L218.246 165.566Z" fill="#5A9DED"/>
<path d="M171.737 170.971L217.778 197.229L207.111 175.057L171.737 170.971ZM192.76 177.865L204.107 179.159L207.529 186.272L192.76 177.865Z" fill="#53D3E0"/>
<path d="M193.634 138.238L216.418 139.605L217.994 141.25L216.756 144.154L195.869 142.883L193.634 138.238Z" fill="#D995D1"/>
<path d="M186.767 141.553L173.637 160.251L173.94 162.511L176.979 163.351L189.001 146.197L186.767 141.553Z" fill="#A6E276"/>
<path d="M174.144 106.538L223.667 140.032L204.795 170.245L174.144 106.538ZM185.337 119.547L205.346 161.134L217.677 141.403L185.337 119.547Z" fill="#FF9C92"/>
<path d="M174.144 106.538L169.442 166.201L204.795 170.245L174.144 106.538ZM177.328 123.412L197.338 164.999L174.245 162.364L177.328 123.412Z" fill="#FFE94D"/>
<path d="M292.987 86.5861C309.232 86.5861 322.401 73.272 322.401 56.8482C322.401 40.4244 309.232 27.1103 292.987 27.1103C276.741 27.1103 263.572 40.4244 263.572 56.8482C263.572 73.272 276.741 86.5861 292.987 86.5861Z" fill="#F7931A"/>
<path d="M306.203 53.1682C306.78 49.2725 303.844 47.1778 299.833 45.7801L301.135 40.5017L297.958 39.7025L296.689 44.8415C295.855 44.6297 294.998 44.4326 294.143 44.2356L295.421 39.0631L292.244 38.262L290.942 43.5386C290.251 43.3788 289.571 43.2227 288.913 43.0554L288.916 43.0387L284.534 41.9328L283.688 45.3638C283.688 45.3638 286.047 45.9102 285.997 45.9437C287.284 46.269 287.516 47.1295 287.477 47.8135L285.995 53.8261C286.083 53.8484 286.197 53.8819 286.326 53.932L285.99 53.8484L283.912 62.2717C283.754 62.6657 283.355 63.2586 282.454 63.0337C282.487 63.0802 280.145 62.452 280.145 62.452L278.568 66.1283L282.704 67.171C283.473 67.3661 284.227 67.5706 284.967 67.762L283.653 73.1L286.828 73.8992L288.13 68.6207C288.997 68.8568 289.839 69.0761 290.663 69.2842L289.365 74.5404L292.542 75.3396L293.856 70.0128C299.276 71.0499 303.35 70.6317 305.065 65.6767C306.448 61.6881 304.997 59.3852 302.146 57.8853C304.223 57.4021 305.786 56.0211 306.203 53.1682V53.1682ZM298.941 63.4612C297.961 67.4516 291.316 65.2938 289.161 64.7529L290.907 57.6809C293.062 58.2255 299.969 59.3016 298.941 63.4612ZM299.925 53.1105C299.03 56.7404 293.5 54.8948 291.707 54.4432L293.288 48.0309C295.081 48.4826 300.859 49.3245 299.925 53.1105Z" fill="white"/>
<path d="M429.44 14.2767L428.747 16.595V84.0346L429.44 84.7058L460.46 66.2118L429.44 14.2767Z" fill="#343434"/>
<path d="M429.44 14.2767L398.391 66.2118L429.44 84.7058V51.9917V14.2767Z" fill="#8C8C8C"/>
<path d="M429.44 90.6289L429.053 91.1029V115.13L429.44 116.247L460.488 72.1348L429.44 90.6289Z" fill="#3C3C3B"/>
<path d="M429.44 116.247V90.6289L398.391 72.1348L429.44 116.247Z" fill="#8C8C8C"/>
<path d="M429.44 84.7058L460.46 66.2117L429.44 51.9917V84.7058Z" fill="#141414"/>
<path d="M398.391 66.2117L429.44 84.7058V51.9917L398.391 66.2117Z" fill="#393939"/>
<path d="M567.575 118.635L582.651 103.542L597.732 118.647L606.499 109.86L582.651 85.9685L558.802 109.854L567.575 118.635Z" fill="#F3BA2F"/>
<path d="M543.83 124.842L552.597 116.056L561.37 124.842L552.597 133.623L543.83 124.842Z" fill="#F3BA2F"/>
<path d="M567.575 131.044L582.651 146.143L597.732 131.038L606.506 139.812L582.657 163.704L558.802 139.831L567.575 131.044Z" fill="#F3BA2F"/>
<path d="M603.912 124.842L612.679 116.056L621.453 124.836L612.679 133.629L603.912 124.842Z" fill="#F3BA2F"/>
<path d="M591.546 124.836L582.65 115.921L576.072 122.509L575.312 123.264L573.755 124.824L582.65 133.727L591.546 124.842V124.836Z" fill="#F3BA2F"/>
<defs>
<filter id="filter0_d_8_2" x="0.581726" y="136.891" width="702" height="290.188" filterUnits="userSpaceOnUse" color-interpolation-filters="sRGB">
<feFlood flood-opacity="0" result="BackgroundImageFix"/>
<feColorMatrix in="SourceAlpha" type="matrix" values="0 0 0 0 0 0 0 0 0 0 0 0 0 0 0 0 0 0 127 0" result="hardAlpha"/>
<feOffset dx="-2" dy="10"/>
<feComposite in2="hardAlpha" operator="out"/>
<feColorMatrix type="matrix" values="0 0 0 0 0 0 0 0 0 0 0 0 0 0 0 0 0 0 0.25 0"/>
<feBlend mode="normal" in2="BackgroundImageFix" result="effect1_dropShadow_8_2"/>
<feBlend mode="normal" in="SourceGraphic" in2="effect1_dropShadow_8_2" result="shape"/>
</filter>
<filter id="filter1_f_8_2" x="82.9842" y="275.364" width="181.872" height="70.0524" filterUnits="userSpaceOnUse" color-interpolation-filters="sRGB">
<feFlood flood-opacity="0" result="BackgroundImageFix"/>
<feBlend mode="normal" in="SourceGraphic" in2="BackgroundImageFix" result="shape"/>
<feGaussianBlur stdDeviation="2" result="effect1_foregroundBlur_8_2"/>
</filter>
<filter id="filter2_f_8_2" x="369.404" y="287.806" width="187.211" height="53.0094" filterUnits="userSpaceOnUse" color-interpolation-filters="sRGB">
<feFlood flood-opacity="0" result="BackgroundImageFix"/>
<feBlend mode="normal" in="SourceGraphic" in2="BackgroundImageFix" result="shape"/>
<feGaussianBlur stdDeviation="2" result="effect1_foregroundBlur_8_2"/>
</filter>
<filter id="filter3_d_8_2" x="433.421" y="326.104" width="71.0284" height="41.0038" filterUnits="userSpaceOnUse" color-interpolation-filters="sRGB">
<feFlood flood-opacity="0" result="BackgroundImageFix"/>
<feColorMatrix in="SourceAlpha" type="matrix" values="0 0 0 0 0 0 0 0 0 0 0 0 0 0 0 0 0 0 127 0" result="hardAlpha"/>
<feOffset dx="8" dy="4"/>
<feGaussianBlur stdDeviation="2"/>
<feComposite in2="hardAlpha" operator="out"/>
<feColorMatrix type="matrix" values="0 0 0 0 0 0 0 0 0 0 0 0 0 0 0 0 0 0 0.25 0"/>
<feBlend mode="normal" in2="BackgroundImageFix" result="effect1_dropShadow_8_2"/>
<feBlend mode="normal" in="SourceGraphic" in2="effect1_dropShadow_8_2" result="shape"/>
</filter>
<filter id="filter4_d_8_2" x="530.915" y="308.266" width="81.0219" height="39.8407" filterUnits="userSpaceOnUse" color-interpolation-filters="sRGB">
<feFlood flood-opacity="0" result="BackgroundImageFix"/>
<feColorMatrix in="SourceAlpha" type="matrix" values="0 0 0 0 0 0 0 0 0 0 0 0 0 0 0 0 0 0 127 0" result="hardAlpha"/>
<feOffset dx="8" dy="4"/>
<feGaussianBlur stdDeviation="2"/>
<feComposite in2="hardAlpha" operator="out"/>
<feColorMatrix type="matrix" values="0 0 0 0 0 0 0 0 0 0 0 0 0 0 0 0 0 0 0.25 0"/>
<feBlend mode="normal" in2="BackgroundImageFix" result="effect1_dropShadow_8_2"/>
<feBlend mode="normal" in="SourceGraphic" in2="effect1_dropShadow_8_2" result="shape"/>
</filter>
<filter id="filter5_d_8_2" x="330.671" y="348.833" width="69.3671" height="31.4786" filterUnits="userSpaceOnUse" color-interpolation-filters="sRGB">
<feFlood flood-opacity="0" result="BackgroundImageFix"/>
<feColorMatrix in="SourceAlpha" type="matrix" values="0 0 0 0 0 0 0 0 0 0 0 0 0 0 0 0 0 0 127 0" result="hardAlpha"/>
<feOffset dx="12" dy="4"/>
<feGaussianBlur stdDeviation="2"/>
<feComposite in2="hardAlpha" operator="out"/>
<feColorMatrix type="matrix" values="0 0 0 0 0 0 0 0 0 0 0 0 0 0 0 0 0 0 0.25 0"/>
<feBlend mode="normal" in2="BackgroundImageFix" result="effect1_dropShadow_8_2"/>
<feBlend mode="normal" in="SourceGraphic" in2="effect1_dropShadow_8_2" result="shape"/>
</filter>
<radialGradient id="paint0_radial_8_2" cx="0" cy="0" r="1" gradientUnits="userSpaceOnUse" gradientTransform="translate(352.582 276.985) rotate(93.6996) scale(258.787 646.542)">
<stop/>
<stop offset="1" stop-color="white" stop-opacity="0"/>
</radialGradient>
<linearGradient id="paint1_linear_8_2" x1="100.933" y1="306.034" x2="126.769" y2="233.708" gradientUnits="userSpaceOnUse">
<stop stop-color="#644343"/>
<stop offset="1" stop-color="#7098FF" stop-opacity="0"/>
</linearGradient>
<linearGradient id="paint2_linear_8_2" x1="161.934" y1="283.681" x2="306.744" y2="361.846" gradientUnits="userSpaceOnUse">
<stop offset="0.120564" stop-color="#710F26"/>
<stop offset="1" stop-color="#D9D9D9"/>
</linearGradient>
<linearGradient id="paint3_linear_8_2" x1="280.124" y1="219.099" x2="255.673" y2="321.741" gradientUnits="userSpaceOnUse">
<stop stop-color="#BB173F"/>
<stop offset="1" stop-color="#D9D9D9"/>
</linearGradient>
<linearGradient id="paint4_linear_8_2" x1="195.974" y1="227.104" x2="199.876" y2="261" gradientUnits="userSpaceOnUse">
<stop stop-color="#BB173F"/>
<stop offset="1" stop-color="#D9D9D9"/>
</linearGradient>
<linearGradient id="paint5_linear_8_2" x1="277.205" y1="280.877" x2="281.219" y2="315.69" gradientUnits="userSpaceOnUse">
<stop stop-color="#BB173F"/>
<stop offset="1" stop-color="#D9D9D9"/>
</linearGradient>
<linearGradient id="paint6_linear_8_2" x1="171.74" y1="242.234" x2="143.657" y2="346.26" gradientUnits="userSpaceOnUse">
<stop stop-color="#BB173F"/>
<stop offset="1" stop-color="#D9D9D9"/>
</linearGradient>
<linearGradient id="paint7_linear_8_2" x1="480.29" y1="326.717" x2="445.584" y2="257.92" gradientUnits="userSpaceOnUse">
<stop stop-color="#644343"/>
<stop offset="1" stop-color="#7098FF" stop-opacity="0"/>
</linearGradient>
<linearGradient id="paint8_linear_8_2" x1="438.759" y1="54.8377" x2="497.291" y2="287.247" gradientUnits="userSpaceOnUse">
<stop offset="0.03125" stop-color="white" stop-opacity="0.69"/>
<stop offset="0.5" stop-color="#890E50"/>
<stop offset="1" stop-color="white"/>
</linearGradient>
<linearGradient id="paint9_linear_8_2" x1="304.458" y1="-49.5376" x2="217.042" y2="368.674" gradientUnits="userSpaceOnUse">
<stop offset="0.03125" stop-color="white" stop-opacity="0.69"/>
<stop offset="0.5" stop-color="#890E50"/>
<stop offset="1" stop-color="white"/>
</linearGradient>
<linearGradient id="paint10_linear_8_2" x1="609.7" y1="24.1903" x2="542.092" y2="342.638" gradientUnits="userSpaceOnUse">
<stop offset="0.03125" stop-color="white" stop-opacity="0.69"/>
<stop offset="0.5" stop-color="#890E50"/>
<stop offset="1" stop-color="white"/>
</linearGradient>
<linearGradient id="paint11_linear_8_2" x1="516.716" y1="-181.643" x2="143.8" y2="311.314" gradientUnits="userSpaceOnUse">
<stop offset="0.03125" stop-color="white" stop-opacity="0.69"/>
<stop offset="0.5" stop-color="#890E50"/>
<stop offset="1" stop-color="white"/>
</linearGradient>
<linearGradient id="paint12_linear_8_2" x1="76.3025" y1="15.2767" x2="38.837" y2="135.801" gradientUnits="userSpaceOnUse">
<stop stop-color="#710F26"/>
<stop offset="1" stop-color="#D9D9D9"/>
</linearGradient>
<linearGradient id="paint13_linear_8_2" x1="459.369" y1="266.405" x2="471.754" y2="304.844" gradientUnits="userSpaceOnUse">
<stop stop-color="#BB173F"/>
<stop offset="1" stop-color="#D9D9D9"/>
</linearGradient>
<linearGradient id="paint14_linear_8_2" x1="459.57" y1="168.795" x2="411.44" y2="254.892" gradientUnits="userSpaceOnUse">
<stop stop-color="#BB173F"/>
<stop offset="1" stop-color="#D9D9D9"/>
</linearGradient>
<linearGradient id="paint15_linear_8_2" x1="349.495" y1="212.61" x2="300.857" y2="298.789" gradientUnits="userSpaceOnUse">
<stop stop-color="#710F26"/>
<stop offset="1" stop-color="#D9D9D9"/>
</linearGradient>
<linearGradient id="paint16_linear_8_2" x1="411.383" y1="216.371" x2="422.738" y2="340.019" gradientUnits="userSpaceOnUse">
<stop stop-color="#BB173F"/>
<stop offset="1" stop-color="#D9D9D9"/>
</linearGradient>
<linearGradient id="paint17_linear_8_2" x1="362.279" y1="120.901" x2="362.279" y2="172.433" gradientUnits="userSpaceOnUse">
<stop stop-color="#FFC700"/>
<stop offset="1" stop-color="#FF00D6"/>
</linearGradient>
<linearGradient id="paint18_linear_8_2" x1="162.379" y1="292.985" x2="147.831" y2="329.938" gradientUnits="userSpaceOnUse">
<stop stop-color="#FFC700"/>
<stop offset="1" stop-color="#FF00D6"/>
</linearGradient>
<linearGradient id="paint19_linear_8_2" x1="378.739" y1="223.078" x2="364.191" y2="260.031" gradientUnits="userSpaceOnUse">
<stop stop-color="#FFC700"/>
<stop offset="1" stop-color="#FF00D6"/>
</linearGradient>
<linearGradient id="paint20_linear_8_2" x1="521.854" y1="156.817" x2="509.738" y2="187.591" gradientUnits="userSpaceOnUse">
<stop stop-color="#FFC700"/>
<stop offset="1" stop-color="#FF00D6"/>
</linearGradient>
<linearGradient id="paint21_linear_8_2" x1="272.471" y1="169.537" x2="257.922" y2="206.49" gradientUnits="userSpaceOnUse">
<stop stop-color="#FFC700"/>
<stop offset="1" stop-color="#FF00D6"/>
</linearGradient>
<linearGradient id="paint22_linear_8_2" x1="480.993" y1="327.257" x2="478.399" y2="362.696" gradientUnits="userSpaceOnUse">
<stop stop-color="#FFC700"/>
<stop offset="1" stop-color="#FF00D6"/>
</linearGradient>
<linearGradient id="paint23_linear_8_2" x1="598.109" y1="320.497" x2="572.578" y2="355.099" gradientUnits="userSpaceOnUse">
<stop stop-color="#FFC700"/>
<stop offset="1" stop-color="#FF00D6"/>
</linearGradient>
<linearGradient id="paint24_linear_8_2" x1="382.154" y1="357.568" x2="362.535" y2="384.158" gradientUnits="userSpaceOnUse">
<stop stop-color="#FFC700"/>
<stop offset="1" stop-color="#FF00D6"/>
</linearGradient>
</defs>
</svg>
