<svg width="302" height="206" viewBox="0 0 302 206" fill="none" xmlns="http://www.w3.org/2000/svg">
<g filter="url(#filter0_d_254_2)">
<path d="M48.1949 93.6362C143.443 64.5269 112.579 75.2618 132.938 63.5387C152.372 52.3477 162.199 63.5387 178.461 63.5387C181.621 63.1154 222.446 55.6292 239.391 71.9877C256.336 88.3463 337.091 97.2391 284.389 112.32C231.687 127.401 290.675 125.296 289.116 135.292C288.081 141.931 284.389 147.917 272.288 150.898C261.638 153.522 251.106 144.418 245.168 155.534C239.231 166.649 259.129 181.584 215.481 177.243C171.833 172.901 197.187 158.73 159.637 170.951C122.087 183.173 38.915 181.06 64.4779 162.998C90.0408 144.936 20.8143 164.91 14.1376 144.754C38.5649 119.509 -47.0531 122.745 48.1949 93.6362Z" fill="url(#paint0_radial_254_2)" fill-opacity="0.42" shape-rendering="crispEdges"/>
</g>
<g filter="url(#filter1_f_254_2)">
<path d="M72.3256 119.675C73.6382 119.621 74.9398 119.917 76.0863 120.532L98.5297 132.566C104.803 135.93 102.518 145.131 95.3354 145.428L77.4947 146.167C76.1484 146.223 74.8146 145.909 73.648 145.263L51.8722 133.201C45.6926 129.778 48.021 120.682 55.1524 120.386L72.3256 119.675Z" fill="url(#paint1_linear_254_2)" fill-opacity="0.76"/>
</g>
<path d="M93.9324 136.4C92.7778 136.665 91.572 136.44 90.6261 135.784L64.9371 117.967C62.0936 115.995 63.1304 111.668 66.6181 110.952L101.759 103.735C102.859 103.509 103.997 103.724 104.906 104.329L130.448 121.33C133.323 123.244 132.387 127.573 128.927 128.367L93.9324 136.4Z" fill="url(#paint2_linear_254_2)"/>
<path d="M93.8247 135.924C92.8145 136.156 91.7594 135.959 90.9317 135.385L65.2427 117.569C62.7547 115.843 63.6619 112.057 66.7136 111.43L101.855 104.213C102.817 104.016 103.813 104.204 104.608 104.733L130.15 121.734C132.666 123.408 131.847 127.196 128.819 127.891L93.8247 135.924Z" stroke="#FFF4F4" stroke-opacity="0.44"/>
<path d="M102.711 105.434C102.225 105.129 101.905 104.636 101.831 104.08L100.65 95.1421C100.541 94.3141 101.499 93.7222 102.227 94.1683L135.424 114.518C135.994 114.868 136.336 115.472 136.336 116.128L136.336 122.833C136.336 124.402 134.505 125.375 133.149 124.525L102.711 105.434Z" fill="url(#paint3_linear_254_2)"/>
<path d="M102.997 105.023C102.633 104.794 102.393 104.424 102.337 104.007L101.156 95.0692C101.102 94.6553 101.581 94.3593 101.945 94.5824L135.141 114.932C135.569 115.194 135.826 115.648 135.826 116.139L135.826 122.844C135.826 124.022 134.452 124.751 133.436 124.113L102.997 105.023Z" stroke="#FFF4F4" stroke-opacity="0.44"/>
<path d="M54.8675 104.763C54.6632 103.707 55.3946 102.67 56.5018 102.448L100.524 93.5971C101.104 93.4804 101.655 93.8568 101.724 94.4174L102.548 101.125C102.8 103.177 101.335 105.1 99.2059 105.51L60.5915 112.953C58.382 113.379 56.2705 112.023 55.8635 109.918L54.8675 104.763Z" fill="url(#paint4_linear_254_2)"/>
<path d="M55.3694 104.663C55.2162 103.871 55.7647 103.093 56.5952 102.926L100.617 94.0759C100.907 94.0175 101.183 94.2057 101.217 94.486L102.041 101.193C102.262 102.989 100.98 104.672 99.1168 105.031L60.5024 112.474C58.5691 112.846 56.7215 111.66 56.3654 109.817L55.3694 104.663Z" stroke="#FFF4F4" stroke-opacity="0.44"/>
<path d="M89.6907 125.472L136.504 115.043L137.143 124.503C137.241 125.963 136.199 127.294 134.702 127.623L92.0246 136.978C91.4318 137.108 90.8641 136.72 90.804 136.144L89.6907 125.472Z" fill="url(#paint5_linear_254_2)"/>
<path d="M91.3119 136.084L90.2441 125.848L136.033 115.648L136.634 124.546C136.716 125.763 135.847 126.872 134.599 127.146L91.9222 136.501C91.6258 136.566 91.3419 136.372 91.3119 136.084Z" stroke="#FFF4F4" stroke-opacity="0.44"/>
<path d="M56.9253 113.31C56.4919 113.013 56.2028 112.561 56.1209 112.052L54.8611 104.229C54.7245 103.381 55.7194 102.766 56.4555 103.243L89.9983 124.99C90.4713 125.297 90.7818 125.784 90.8531 126.332L92.0231 135.315C92.1339 136.166 91.1249 136.754 90.4035 136.26L56.9253 113.31Z" fill="url(#paint6_linear_254_2)"/>
<path d="M57.2286 112.909C56.9036 112.687 56.6867 112.348 56.6253 111.966L55.3655 104.144C55.2972 103.72 55.7947 103.412 56.1627 103.65L89.7056 125.397C90.0603 125.627 90.2932 125.993 90.3467 126.404L91.5166 135.387C91.572 135.812 91.0676 136.107 90.7069 135.859L57.2286 112.909Z" stroke="#FFF4F4" stroke-opacity="0.44"/>
<ellipse cx="98.6987" cy="129.582" rx="1.95346" ry="1.67707" fill="#D9D9D9"/>
<ellipse cx="116.283" cy="123.572" rx="1.50266" ry="1.2578" fill="#D9D9D9"/>
<ellipse cx="89.5309" cy="101.486" rx="1.80319" ry="1.53731" fill="#D9D9D9"/>
<ellipse cx="116.283" cy="106.798" rx="1.50266" ry="1.2578" fill="#D9D9D9"/>
<ellipse cx="65.6342" cy="112.808" rx="1.95346" ry="1.67707" fill="#D9D9D9"/>
<ellipse cx="78.1086" cy="122.174" rx="1.80319" ry="1.53731" fill="#F1C529"/>
<g filter="url(#filter2_f_254_2)">
<path d="M177.608 126.549C178.89 125.52 180.508 124.957 182.178 124.957L223.921 124.957C230.484 124.957 233.563 132.761 228.65 136.945L222.103 142.522C220.798 143.633 219.116 144.247 217.373 144.247L175.228 144.247C168.561 144.247 165.54 136.234 170.658 132.126L177.608 126.549Z" fill="url(#paint7_linear_254_2)" fill-opacity="0.76"/>
</g>
<path d="M148.463 123.088C161.235 123.644 128.155 91.3804 128.721 102.228C129.287 113.075 150.655 104.99 150.655 104.99L167.983 95.9342C167.983 95.9342 190.419 83.2886 200.864 84.796C207.673 85.7787 204.821 108.689 216.612 93.5179C228.402 78.3466 203.439 71.7144 203.439 71.7144" stroke="url(#paint8_linear_254_2)" stroke-width="4"/>
<path d="M167.744 159.955C167.744 159.955 184.128 152.578 185.395 142.669C186.663 132.76 193.51 129.419 193.51 129.419C193.51 129.419 195.523 128.367 193.325 119.202C191.127 110.037 182.896 111.85 182.896 111.85C182.896 111.85 179.738 106.624 178.866 100.797C177.994 94.9699 171.409 91.224 168.85 84.2191C166.905 78.8945 171.048 78.3285 166.007 70.1754C160.966 62.0223 180.702 76.01 176.692 60.7978" stroke="url(#paint9_linear_254_2)" stroke-width="4"/>
<path d="M130.757 102.871C146.988 111.398 129.254 52.9698 121.438 66.1092C113.623 79.2486 147.89 82.8829 147.89 82.8829L177.648 82.8829C177.648 82.8829 216.904 81.7976 229.349 90.0117C237.462 95.3666 215.672 120.624 243.025 110C270.379 99.377 243.025 76.1734 243.025 76.1734" stroke="url(#paint10_linear_254_2)" stroke-width="4"/>
<path d="M126.849 158.225C126.849 158.225 154.052 159.622 163.52 148.719C172.989 137.817 184.561 138.096 184.561 138.096C184.561 138.096 188.018 138.096 192.377 125.935C196.735 113.774 184.561 110.839 184.561 110.839C184.561 110.839 184.561 102.732 188.018 95.3232C191.475 87.9148 185.834 79.4402 188.018 69.6036C189.678 62.1264 195.533 64.0123 195.382 51.2923C195.232 38.5723 209.961 67.2273 216.724 46.8193" stroke="url(#paint11_linear_254_2)" stroke-width="4"/>
<path d="M151.938 82.4227C151.702 81.9234 151.925 81.3492 152.436 81.1403L195.306 63.622C197.351 62.7864 199.774 63.7282 200.718 65.7257L217.101 100.405C218.044 102.403 217.152 104.7 215.107 105.535L175.013 121.919C172.968 122.754 170.546 121.812 169.602 119.815L151.938 82.4227Z" fill="url(#paint12_linear_254_2)"/>
<path d="M152.4 82.2336C152.283 81.9839 152.394 81.6968 152.65 81.5924L195.52 64.0741C197.309 63.3429 199.429 64.167 200.255 65.9148L216.638 100.595C217.464 102.342 216.682 104.352 214.893 105.083L174.8 121.467C173.01 122.198 170.891 121.374 170.065 119.626L152.4 82.2336Z" stroke="white" stroke-opacity="0.37"/>
<path d="M171.199 123.916C171.589 123.008 172.329 122.289 173.268 121.905L209.596 107.06C212.875 105.721 216.357 108.896 215.148 112.122L212.172 120.062C211.791 121.081 210.977 121.884 209.928 122.277L173.716 135.841C170.368 137.095 166.97 133.767 168.34 130.575L171.199 123.916Z" fill="url(#paint13_linear_254_2)"/>
<path d="M171.671 124.116C172.012 123.322 172.66 122.693 173.482 122.357L209.81 107.512C212.678 106.34 215.725 109.118 214.667 111.941L211.692 119.881C211.358 120.773 210.646 121.476 209.728 121.819L173.516 135.384C170.587 136.481 167.613 133.569 168.812 130.776L171.671 124.116Z" stroke="white" stroke-opacity="0.37"/>
<path d="M191.524 81.5252C191.318 81.0906 191.28 80.605 191.416 80.1574L196.046 64.9085C196.566 63.1946 199.039 63.0859 199.846 64.7414L216.927 99.8029C217.882 101.764 217.977 103.986 217.19 105.955L210.718 122.155L191.524 81.5252Z" fill="url(#paint14_linear_254_2)"/>
<path d="M191.987 81.336C191.833 81.0101 191.804 80.6459 191.906 80.3102L196.535 65.0613C196.925 63.7759 198.78 63.6944 199.385 64.936L216.466 99.9975C217.362 101.836 217.451 103.919 216.714 105.765L210.671 120.888L191.987 81.336Z" stroke="white" stroke-opacity="0.37"/>
<path d="M144.599 100.832C144.108 99.7914 144.099 98.6134 144.575 97.5995L152.047 81.6963C152.409 80.9259 153.569 80.9754 153.917 81.7761L170.806 120.599C171.216 121.542 171.237 122.588 170.866 123.519L167.184 132.734C165.903 135.939 161.182 135.935 159.667 132.728L144.599 100.832Z" fill="url(#paint15_linear_254_2)"/>
<path d="M145.062 100.643C144.632 99.7324 144.624 98.7016 145.041 97.8145L152.513 81.9112C152.693 81.526 153.273 81.5508 153.448 81.9512L170.336 120.774C170.695 121.599 170.714 122.514 170.389 123.329L166.707 132.544C165.587 135.348 161.455 135.345 160.13 132.539L145.062 100.643Z" stroke="white" stroke-opacity="0.37"/>
<path d="M145.841 102.694C144.898 100.697 145.79 98.4001 147.835 97.5644L187.929 81.181C189.974 80.3453 192.396 81.2872 193.34 83.2846L210.577 119.773C211.049 120.771 210.603 121.92 209.58 122.338L166.71 139.856C165.176 140.483 163.359 139.776 162.651 138.278L145.841 102.694Z" fill="url(#paint16_linear_254_2)"/>
<path d="M146.304 102.505C145.478 100.757 146.26 98.7477 148.049 98.0165L188.142 81.6331C189.931 80.9019 192.051 81.726 192.877 83.4738L210.114 119.962C210.468 120.711 210.133 121.572 209.367 121.886L166.496 139.404C165.218 139.926 163.704 139.337 163.114 138.089L146.304 102.505Z" stroke="white" stroke-opacity="0.37"/>
<ellipse cx="165.324" cy="120.484" rx="1.95346" ry="1.67707" fill="#F1C529"/>
<ellipse cx="180.954" cy="115.312" rx="2.55452" ry="2.09633" fill="#D9D9D9"/>
<ellipse cx="194.781" cy="108.742" rx="1.35239" ry="1.11804" fill="#F1C529"/>
<ellipse cx="193.428" cy="122.301" rx="1.50266" ry="1.2578" fill="#D9D9D9"/>
<ellipse cx="177.347" cy="128.87" rx="1.95346" ry="1.67707" fill="#D9D9D9"/>
<ellipse cx="186.064" cy="89.4522" rx="1.65293" ry="1.39756" fill="#D9D9D9"/>
<ellipse rx="2.61171" ry="2.37302" transform="matrix(0.759449 0.652924 -0.274771 0.943189 200.772 80.8159)" fill="#D9D9D9"/>
<ellipse rx="1.09462" ry="0.994578" transform="matrix(0.759449 0.652924 -0.274771 0.943189 206.613 90.2258)" fill="#D9D9D9"/>
<ellipse rx="1.88883" ry="1.7162" transform="matrix(0.759449 0.652924 -0.274771 0.943189 209.421 104.885)" fill="#F1C529"/>
<ellipse cx="171.035" cy="95.0437" rx="1.65293" ry="1.39756" fill="#F1C529"/>
<ellipse cx="183.359" cy="100.914" rx="1.95346" ry="1.67707" fill="#D9D9D9"/>
<path d="M156.156 51.7118L158.788 59.3421H167.305L160.415 64.0579L163.046 71.6882L156.156 66.9724L149.265 71.6882L151.897 64.0579L145.007 59.3421H153.524L156.156 51.7118Z" fill="url(#paint17_linear_254_2)" stroke="white"/>
<path d="M70.4848 125.462L69.7666 131.499L75.3361 133.692L69.3227 135.23L68.6045 141.267L65.6063 136.181L59.5929 137.719L63.7533 133.037L60.755 127.951L66.3245 130.144L70.4848 125.462Z" fill="url(#paint18_linear_254_2)" stroke="white"/>
<path d="M163.21 95.502L162.492 101.539L168.062 103.732L162.048 105.27L161.33 111.307L158.332 106.221L152.319 107.759L156.479 103.077L153.481 97.991L159.05 100.184L163.21 95.502Z" fill="url(#paint19_linear_254_2)" stroke="white"/>
<path d="M224.545 67.1045L224.098 72.1916L229.226 74.2104L223.822 75.3356L223.375 80.4226L220.482 76.0309L215.078 77.1561L218.694 73.3167L215.801 68.925L220.929 70.9439L224.545 67.1045Z" fill="url(#paint20_linear_254_2)" stroke="white"/>
<path d="M117.667 72.556L116.948 78.5928L122.518 80.7856L116.505 82.3238L115.786 88.3607L112.788 83.2746L106.775 84.8128L110.935 80.1311L107.937 75.045L113.506 77.2377L117.667 72.556Z" fill="url(#paint21_linear_254_2)" stroke="white"/>
<g filter="url(#filter3_d_254_2)">
<path d="M207.033 140.15L203.989 145.203L211.154 145.728L202.108 148.326L199.064 153.378L196.516 149.932L187.47 152.53L194.942 147.801L192.395 144.354L199.561 144.879L207.033 140.15Z" fill="url(#paint22_linear_254_2)"/>
<path d="M207.033 140.15L203.989 145.203L211.154 145.728L202.108 148.326L199.064 153.378L196.516 149.932L187.47 152.53L194.942 147.801L192.395 144.354L199.561 144.879L207.033 140.15Z" stroke="white"/>
</g>
<g filter="url(#filter4_d_254_2)">
<path d="M257.226 137.253L250.675 140.332L257.312 145.229L246.626 142.235L240.075 145.314L240.022 140.385L229.336 137.391L239.989 137.338L239.936 132.409L246.573 137.306L257.226 137.253Z" fill="url(#paint23_linear_254_2)"/>
<path d="M257.226 137.253L250.675 140.332L257.312 145.229L246.626 142.235L240.075 145.314L240.022 140.385L229.336 137.391L239.989 137.338L239.936 132.409L246.573 137.306L257.226 137.253Z" stroke="white"/>
</g>
<g filter="url(#filter5_d_254_2)">
<path d="M164.674 153.141L159.525 155.423L164.256 158.913L156.344 156.833L151.195 159.115L151.453 155.548L143.54 153.467L151.613 153.343L151.87 149.775L156.601 153.266L164.674 153.141Z" fill="url(#paint24_linear_254_2)"/>
<path d="M164.674 153.141L159.525 155.423L164.256 158.913L156.344 156.833L151.195 159.115L151.453 155.548L143.54 153.467L151.613 153.343L151.87 149.775L156.601 153.266L164.674 153.141Z" stroke="white"/>
</g>
<g filter="url(#filter6_d_254_2)">
<path d="M35.5883 70.0588C44.1949 70.0588 51.1712 77.0458 51.1712 85.6656C51.1712 94.2854 44.1949 101.272 35.5883 101.272C26.9817 101.272 20.0054 94.2854 20.0054 85.6656C20.0054 77.0458 26.9817 70.0588 35.5883 70.0588Z" fill="#9449F3"/>
<path d="M40.9201 82.0668C40.7171 81.9584 40.4906 81.9017 40.2605 81.9017C40.0305 81.9017 39.804 81.9584 39.6009 82.0668L36.627 83.8281L34.5497 84.9845L31.5758 86.7468C31.3727 86.8552 31.1462 86.9119 30.9162 86.9119C30.6861 86.9119 30.4596 86.8552 30.2566 86.7468L27.8931 85.3693C27.6986 85.2569 27.5359 85.0968 27.4204 84.9039C27.3049 84.711 27.2404 84.4918 27.233 84.2671V81.5173C27.2288 81.2902 27.2885 81.0664 27.4051 80.8715C27.5218 80.6766 27.6908 80.5185 27.8929 80.4151L30.2566 79.0941C30.4595 78.9853 30.686 78.9284 30.9162 78.9284C31.1463 78.9284 31.3729 78.9853 31.5758 79.0941L33.9392 80.4154C34.1337 80.5277 34.2964 80.6879 34.4118 80.8808C34.5273 81.0737 34.5917 81.2928 34.5991 81.5176V83.2777L36.627 82.067V80.361C36.6325 80.1349 36.5747 79.9118 36.46 79.717C36.3454 79.5222 36.1786 79.3634 35.9784 79.2588L31.6298 76.727C31.4269 76.6182 31.2004 76.5613 30.9702 76.5613C30.7401 76.5613 30.5135 76.6182 30.3106 76.727L25.9138 79.2588C25.6943 79.3441 25.5072 79.4966 25.379 79.6944C25.2508 79.8922 25.188 80.1254 25.1995 80.361V85.4798C25.1962 85.706 25.2564 85.9286 25.373 86.1224C25.4897 86.3162 25.6582 86.4734 25.8595 86.5761L30.2566 89.1139C30.4596 89.2223 30.6861 89.279 30.9162 89.279C31.1462 89.279 31.3727 89.2223 31.5758 89.1139L34.5497 87.407L36.5832 86.1962L39.5469 84.4948C39.7499 84.3865 39.9764 84.3298 40.2065 84.3298C40.4365 84.3298 40.6631 84.3865 40.8661 84.4948L43.2296 85.816C43.424 85.9284 43.5865 86.0887 43.7019 86.2815C43.8172 86.4744 43.8815 86.6936 43.8887 86.9183V89.6158C43.8929 89.8428 43.8333 90.0664 43.7168 90.2611C43.6003 90.4558 43.4314 90.6138 43.2296 90.7171L40.8661 92.0924C40.6632 92.2012 40.4366 92.2582 40.2065 92.2582C39.9763 92.2582 39.7498 92.2012 39.5469 92.0924L37.1834 90.7712C36.9889 90.6591 36.8263 90.4991 36.7108 90.3064C36.5952 90.1138 36.5307 89.8948 36.5233 89.6702V87.9022L34.5497 89.0576V90.818C34.5453 91.0451 34.6048 91.2689 34.7213 91.4638C34.8379 91.6587 35.0068 91.8169 35.2088 91.9202L39.6058 94.4517C39.8089 94.5605 40.0356 94.6175 40.2659 94.6175C40.4962 94.6175 40.7229 94.5605 40.926 94.4517L45.3228 91.9197C45.516 91.807 45.6774 91.6468 45.7919 91.4544C45.9064 91.262 45.9702 91.0436 45.9773 90.8197V85.6987C45.9815 85.4716 45.9218 85.2479 45.8051 85.0532C45.6884 84.8585 45.5193 84.7005 45.3172 84.5975L40.9201 82.0668Z" fill="white"/>
</g>
<g filter="url(#filter7_d_254_2)">
<path d="M135.087 34.4688C137.766 39.4687 135.878 45.696 130.87 48.3787C125.863 51.0613 119.633 49.183 116.954 44.183C114.276 39.1831 116.163 32.9558 121.171 30.2732C126.179 27.5905 132.409 29.4688 135.087 34.4688Z" fill="#844FDD"/>
<path d="M129.771 41.3033C129.77 41.1516 129.733 41.0024 129.661 40.8688C129.59 40.7351 129.486 40.6212 129.36 40.5369L127.411 39.3574L126.093 38.5105L124.144 37.3313C124.018 37.2471 123.914 37.1331 123.843 36.9995C123.771 36.8658 123.733 36.7166 123.733 36.5649L123.798 34.7632C123.803 34.6152 123.845 34.4708 123.921 34.3437C123.997 34.2166 124.104 34.1109 124.233 34.0367L125.83 33.1809C125.961 33.1077 126.109 33.0727 126.259 33.0799C126.408 33.087 126.553 33.136 126.676 33.2212L128.179 34.1833C128.305 34.2672 128.409 34.3812 128.48 34.5149C128.552 34.6486 128.59 34.7979 128.589 34.9496L128.557 36.7339C128.553 36.8818 128.51 37.0262 128.434 37.1533C128.358 37.2804 128.251 37.386 128.122 37.4602L127.1 38.008L128.434 38.8093L129.426 38.2784C129.559 38.2112 129.67 38.1082 129.748 37.981C129.825 37.8537 129.865 37.7074 129.864 37.5585L129.981 34.2443C129.982 34.0926 129.944 33.9433 129.872 33.8096C129.801 33.6759 129.697 33.562 129.571 33.478L126.732 31.7116C126.614 31.6107 126.467 31.5494 126.312 31.5365C126.157 31.5235 126.002 31.5596 125.869 31.6396L122.895 33.2327C122.763 33.3012 122.652 33.4055 122.576 33.5335C122.5 33.6616 122.461 33.8084 122.464 33.9574L122.358 37.3016C122.358 37.4533 122.396 37.6025 122.467 37.7362C122.539 37.8698 122.642 37.9838 122.769 38.068L124.686 39.2644L126.022 40.069L127.933 41.2612C128.059 41.3454 128.162 41.4594 128.234 41.593C128.305 41.7267 128.343 41.8759 128.343 42.0276L128.311 43.8118C128.307 43.9597 128.264 44.104 128.188 44.2311C128.112 44.3581 128.004 44.4636 127.876 44.5377L126.309 45.3773C126.178 45.4504 126.03 45.4854 125.881 45.4782C125.731 45.4711 125.587 45.4222 125.464 45.3371L123.93 44.3921C123.803 44.3081 123.7 44.1942 123.628 44.0605C123.556 43.9268 123.519 43.7774 123.519 43.6257L123.551 41.8415C123.556 41.6936 123.598 41.5493 123.674 41.4223C123.75 41.2952 123.857 41.1896 123.985 41.1153L125.012 40.5651L123.727 39.7781L122.704 40.326C122.571 40.3941 122.459 40.4984 122.382 40.6267C122.305 40.7551 122.266 40.9024 122.269 41.0519L122.167 44.3942C122.167 44.546 122.204 44.6955 122.276 44.8293C122.347 44.963 122.451 45.077 122.578 45.1611L125.417 46.9274C125.542 47.0046 125.686 47.0485 125.833 47.0552C125.981 47.0618 126.127 47.0309 126.26 46.9653L129.235 45.3716C129.368 45.3033 129.479 45.199 129.556 45.0706C129.633 44.9422 129.672 44.7948 129.669 44.6454L129.771 41.3033Z" fill="white"/>
</g>
<path d="M84.877 49.0979L81.37 71.5669L76.7981 62.0646L84.877 49.0979ZM81.5702 57.9969L78.9732 62.1517L80.4399 65.2L81.5702 57.9969Z" fill="#5A9DED"/>
<path d="M61.6378 60.3135L81.3699 71.567L76.798 62.0646L61.6378 60.3135ZM70.6478 63.2681L75.5107 63.8227L76.9774 66.8711L70.6478 63.2681Z" fill="#53D3E0"/>
<path d="M71.0225 46.2852L80.7869 46.8709L81.4623 47.5759L80.932 48.8206L71.9801 48.2756L71.0225 46.2852Z" fill="#D995D1"/>
<path d="M68.0793 47.7056L62.4524 55.7194L62.5822 56.6877L63.8846 57.0479L69.037 49.696L68.0793 47.7056Z" fill="#A6E276"/>
<path d="M62.6694 32.6991L83.8936 47.0537L75.8059 60.0022L62.6694 32.6991ZM67.4664 38.2745L76.0418 56.0977L81.3268 47.6413L67.4664 38.2745Z" fill="#FF9C92"/>
<path d="M62.6693 32.699L60.6544 58.2692L75.8058 60.0022L62.6693 32.699ZM64.0343 39.9308L72.6097 57.754L62.7126 56.6246L64.0343 39.9308Z" fill="#FFE94D"/>
<path d="M256.257 64.4521L242.068 72.5548L245.354 65.7279L256.257 64.4521ZM249.778 66.5842L246.281 66.9884L245.226 69.1784L249.778 66.5842Z" fill="#5A9DED"/>
<path d="M239.542 56.4303L242.068 72.5551L245.354 65.7283L239.542 56.4303ZM241.922 62.8142L243.79 65.7935L242.736 67.9835L241.922 62.8142Z" fill="#53D3E0"/>
<path d="M251.626 55.4114L255.674 61.157L255.581 61.8523L254.644 62.1125L250.938 56.8414L251.626 55.4114Z" fill="#D995D1"/>
<path d="M249.509 54.3958L242.487 54.8283L242.001 55.3352L242.383 56.2281L248.821 55.8257L249.509 54.3958Z" fill="#A6E276"/>
<path d="M255.511 44.6309L256.964 62.9836L246.068 64.2464L255.511 44.6309ZM254.53 49.8238L248.366 62.6287L255.484 61.8056L254.53 49.8238Z" fill="#FF9C92"/>
<path d="M255.511 44.6308L240.249 54.9615L246.068 64.2464L255.511 44.6308ZM252.062 48.639L245.897 61.4439L242.095 55.38L252.062 48.639Z" fill="#FFE94D"/>
<path d="M184.939 6.01587L184.642 7.00939V35.9121L184.939 36.1998L198.234 28.2737L184.939 6.01587Z" fill="#343434"/>
<path d="M184.939 6.01587L171.633 28.2737L184.939 36.1998V22.1794V6.01587Z" fill="#8C8C8C"/>
<path d="M184.939 38.7383L184.773 38.9414V49.2386L184.939 49.7174L198.245 30.8123L184.939 38.7383Z" fill="#3C3C3B"/>
<path d="M184.939 49.7174V38.7383L171.633 30.8123L184.939 49.7174Z" fill="#8C8C8C"/>
<path d="M184.939 36.1998L198.234 28.2737L184.939 22.1794V36.1998Z" fill="#141414"/>
<path d="M171.633 28.2737L184.939 36.1998V22.1794L171.633 28.2737Z" fill="#393939"/>
<path d="M184.939 6.01587L184.642 7.00939V35.9121L184.939 36.1998L198.234 28.2737L184.939 6.01587Z" fill="#343434"/>
<path d="M184.939 6.01587L171.633 28.2737L184.939 36.1998V22.1794V6.01587Z" fill="#8C8C8C"/>
<path d="M184.939 38.7383L184.773 38.9414V49.2386L184.939 49.7174L198.245 30.8123L184.939 38.7383Z" fill="#3C3C3B"/>
<path d="M184.939 49.7174V38.7383L171.633 30.8123L184.939 49.7174Z" fill="#8C8C8C"/>
<path d="M184.939 36.1998L198.234 28.2737L184.939 22.1794V36.1998Z" fill="#141414"/>
<path d="M171.633 28.2737L184.939 36.1998V22.1794L171.633 28.2737Z" fill="#393939"/>
<defs>
<filter id="filter0_d_254_2" x="0" y="58.5649" width="302" height="124.081" filterUnits="userSpaceOnUse" color-interpolation-filters="sRGB">
<feFlood flood-opacity="0" result="BackgroundImageFix"/>
<feColorMatrix in="SourceAlpha" type="matrix" values="0 0 0 0 0 0 0 0 0 0 0 0 0 0 0 0 0 0 127 0" result="hardAlpha"/>
<feOffset dx="-2" dy="4"/>
<feComposite in2="hardAlpha" operator="out"/>
<feColorMatrix type="matrix" values="0 0 0 0 0 0 0 0 0 0 0 0 0 0 0 0 0 0 0.25 0"/>
<feBlend mode="normal" in2="BackgroundImageFix" result="effect1_dropShadow_254_2"/>
<feBlend mode="normal" in="SourceGraphic" in2="effect1_dropShadow_254_2" result="shape"/>
</filter>
<filter id="filter1_f_254_2" x="44.3033" y="115.669" width="61.8809" height="34.5048" filterUnits="userSpaceOnUse" color-interpolation-filters="sRGB">
<feFlood flood-opacity="0" result="BackgroundImageFix"/>
<feBlend mode="normal" in="SourceGraphic" in2="BackgroundImageFix" result="shape"/>
<feGaussianBlur stdDeviation="2" result="effect1_foregroundBlur_254_2"/>
</filter>
<filter id="filter2_f_254_2" x="164.082" y="120.957" width="70.9845" height="27.2898" filterUnits="userSpaceOnUse" color-interpolation-filters="sRGB">
<feFlood flood-opacity="0" result="BackgroundImageFix"/>
<feBlend mode="normal" in="SourceGraphic" in2="BackgroundImageFix" result="shape"/>
<feGaussianBlur stdDeviation="2" result="effect1_foregroundBlur_254_2"/>
</filter>
<filter id="filter3_d_254_2" x="185.547" y="138.998" width="39.4489" height="23.3665" filterUnits="userSpaceOnUse" color-interpolation-filters="sRGB">
<feFlood flood-opacity="0" result="BackgroundImageFix"/>
<feColorMatrix in="SourceAlpha" type="matrix" values="0 0 0 0 0 0 0 0 0 0 0 0 0 0 0 0 0 0 127 0" result="hardAlpha"/>
<feOffset dx="8" dy="4"/>
<feGaussianBlur stdDeviation="2"/>
<feComposite in2="hardAlpha" operator="out"/>
<feColorMatrix type="matrix" values="0 0 0 0 0 0 0 0 0 0 0 0 0 0 0 0 0 0 0.25 0"/>
<feBlend mode="normal" in2="BackgroundImageFix" result="effect1_dropShadow_254_2"/>
<feBlend mode="normal" in="SourceGraphic" in2="effect1_dropShadow_254_2" result="shape"/>
</filter>
<filter id="filter4_d_254_2" x="227.218" y="131.481" width="43.7651" height="22.6334" filterUnits="userSpaceOnUse" color-interpolation-filters="sRGB">
<feFlood flood-opacity="0" result="BackgroundImageFix"/>
<feColorMatrix in="SourceAlpha" type="matrix" values="0 0 0 0 0 0 0 0 0 0 0 0 0 0 0 0 0 0 127 0" result="hardAlpha"/>
<feOffset dx="8" dy="4"/>
<feGaussianBlur stdDeviation="2"/>
<feComposite in2="hardAlpha" operator="out"/>
<feColorMatrix type="matrix" values="0 0 0 0 0 0 0 0 0 0 0 0 0 0 0 0 0 0 0.25 0"/>
<feBlend mode="normal" in2="BackgroundImageFix" result="effect1_dropShadow_254_2"/>
<feBlend mode="normal" in="SourceGraphic" in2="effect1_dropShadow_254_2" result="shape"/>
</filter>
<filter id="filter5_d_254_2" x="141.369" y="148.894" width="41.1895" height="19.0249" filterUnits="userSpaceOnUse" color-interpolation-filters="sRGB">
<feFlood flood-opacity="0" result="BackgroundImageFix"/>
<feColorMatrix in="SourceAlpha" type="matrix" values="0 0 0 0 0 0 0 0 0 0 0 0 0 0 0 0 0 0 127 0" result="hardAlpha"/>
<feOffset dx="12" dy="4"/>
<feGaussianBlur stdDeviation="2"/>
<feComposite in2="hardAlpha" operator="out"/>
<feColorMatrix type="matrix" values="0 0 0 0 0 0 0 0 0 0 0 0 0 0 0 0 0 0 0.25 0"/>
<feBlend mode="normal" in2="BackgroundImageFix" result="effect1_dropShadow_254_2"/>
<feBlend mode="normal" in="SourceGraphic" in2="effect1_dropShadow_254_2" result="shape"/>
</filter>
<filter id="filter6_d_254_2" x="16.0054" y="70.0588" width="39.1657" height="39.2135" filterUnits="userSpaceOnUse" color-interpolation-filters="sRGB">
<feFlood flood-opacity="0" result="BackgroundImageFix"/>
<feColorMatrix in="SourceAlpha" type="matrix" values="0 0 0 0 0 0 0 0 0 0 0 0 0 0 0 0 0 0 127 0" result="hardAlpha"/>
<feOffset dy="4"/>
<feGaussianBlur stdDeviation="2"/>
<feComposite in2="hardAlpha" operator="out"/>
<feColorMatrix type="matrix" values="0 0 0 0 0 0 0 0 0 0 0 0 0 0 0 0 0 0 0.25 0"/>
<feBlend mode="normal" in2="BackgroundImageFix" result="effect1_dropShadow_254_2"/>
<feBlend mode="normal" in="SourceGraphic" in2="effect1_dropShadow_254_2" result="shape"/>
</filter>
<filter id="filter7_d_254_2" x="111.736" y="29.0503" width="28.5687" height="28.5513" filterUnits="userSpaceOnUse" color-interpolation-filters="sRGB">
<feFlood flood-opacity="0" result="BackgroundImageFix"/>
<feColorMatrix in="SourceAlpha" type="matrix" values="0 0 0 0 0 0 0 0 0 0 0 0 0 0 0 0 0 0 127 0" result="hardAlpha"/>
<feOffset dy="4"/>
<feGaussianBlur stdDeviation="2"/>
<feComposite in2="hardAlpha" operator="out"/>
<feColorMatrix type="matrix" values="0 0 0 0 0 0 0 0 0 0 0 0 0 0 0 0 0 0 0.25 0"/>
<feBlend mode="normal" in2="BackgroundImageFix" result="effect1_dropShadow_254_2"/>
<feBlend mode="normal" in="SourceGraphic" in2="effect1_dropShadow_254_2" result="shape"/>
</filter>
<radialGradient id="paint0_radial_254_2" cx="0" cy="0" r="1" gradientUnits="userSpaceOnUse" gradientTransform="translate(152 118.605) rotate(93.6996) scale(110.909 277.089)">
<stop/>
<stop offset="1" stop-color="white" stop-opacity="0"/>
</radialGradient>
<linearGradient id="paint1_linear_254_2" x1="44.1506" y1="131.055" x2="55.2231" y2="100.058" gradientUnits="userSpaceOnUse">
<stop stop-color="#644343"/>
<stop offset="1" stop-color="#7098FF" stop-opacity="0"/>
</linearGradient>
<linearGradient id="paint2_linear_254_2" x1="70.2937" y1="121.475" x2="132.355" y2="154.974" gradientUnits="userSpaceOnUse">
<stop offset="0.120564" stop-color="#710F26"/>
<stop offset="1" stop-color="#D9D9D9"/>
</linearGradient>
<linearGradient id="paint3_linear_254_2" x1="120.947" y1="93.797" x2="110.468" y2="137.786" gradientUnits="userSpaceOnUse">
<stop stop-color="#BB173F"/>
<stop offset="1" stop-color="#D9D9D9"/>
</linearGradient>
<linearGradient id="paint4_linear_254_2" x1="84.8822" y1="97.2274" x2="86.5546" y2="111.755" gradientUnits="userSpaceOnUse">
<stop stop-color="#BB173F"/>
<stop offset="1" stop-color="#D9D9D9"/>
</linearGradient>
<linearGradient id="paint5_linear_254_2" x1="119.696" y1="120.273" x2="121.416" y2="135.193" gradientUnits="userSpaceOnUse">
<stop stop-color="#BB173F"/>
<stop offset="1" stop-color="#D9D9D9"/>
</linearGradient>
<linearGradient id="paint6_linear_254_2" x1="74.4965" y1="103.712" x2="62.4606" y2="148.294" gradientUnits="userSpaceOnUse">
<stop stop-color="#BB173F"/>
<stop offset="1" stop-color="#D9D9D9"/>
</linearGradient>
<linearGradient id="paint7_linear_254_2" x1="206.732" y1="139.919" x2="191.858" y2="110.434" gradientUnits="userSpaceOnUse">
<stop stop-color="#644343"/>
<stop offset="1" stop-color="#7098FF" stop-opacity="0"/>
</linearGradient>
<linearGradient id="paint8_linear_254_2" x1="188.933" y1="23.3992" x2="214.018" y2="123.003" gradientUnits="userSpaceOnUse">
<stop offset="0.03125" stop-color="white" stop-opacity="0.69"/>
<stop offset="0.5" stop-color="#890E50"/>
<stop offset="1" stop-color="white"/>
</linearGradient>
<linearGradient id="paint9_linear_254_2" x1="131.376" y1="-21.3332" x2="93.9116" y2="157.901" gradientUnits="userSpaceOnUse">
<stop offset="0.03125" stop-color="white" stop-opacity="0.69"/>
<stop offset="0.5" stop-color="#890E50"/>
<stop offset="1" stop-color="white"/>
</linearGradient>
<linearGradient id="paint10_linear_254_2" x1="262.194" y1="10.2646" x2="233.219" y2="146.742" gradientUnits="userSpaceOnUse">
<stop offset="0.03125" stop-color="white" stop-opacity="0.69"/>
<stop offset="0.5" stop-color="#890E50"/>
<stop offset="1" stop-color="white"/>
</linearGradient>
<linearGradient id="paint11_linear_254_2" x1="222.343" y1="-77.9496" x2="62.522" y2="133.317" gradientUnits="userSpaceOnUse">
<stop offset="0.03125" stop-color="white" stop-opacity="0.69"/>
<stop offset="0.5" stop-color="#890E50"/>
<stop offset="1" stop-color="white"/>
</linearGradient>
<linearGradient id="paint12_linear_254_2" x1="184.578" y1="75.0685" x2="189.445" y2="128.061" gradientUnits="userSpaceOnUse">
<stop stop-color="#710F26"/>
<stop offset="1" stop-color="#D9D9D9"/>
</linearGradient>
<linearGradient id="paint13_linear_254_2" x1="197.766" y1="114.071" x2="203.073" y2="130.545" gradientUnits="userSpaceOnUse">
<stop stop-color="#BB173F"/>
<stop offset="1" stop-color="#D9D9D9"/>
</linearGradient>
<linearGradient id="paint14_linear_254_2" x1="197.852" y1="72.2367" x2="177.225" y2="109.136" gradientUnits="userSpaceOnUse">
<stop stop-color="#BB173F"/>
<stop offset="1" stop-color="#D9D9D9"/>
</linearGradient>
<linearGradient id="paint15_linear_254_2" x1="150.677" y1="91.0156" x2="129.832" y2="127.95" gradientUnits="userSpaceOnUse">
<stop stop-color="#710F26"/>
<stop offset="1" stop-color="#D9D9D9"/>
</linearGradient>
<linearGradient id="paint16_linear_254_2" x1="177.2" y1="92.6275" x2="182.067" y2="145.62" gradientUnits="userSpaceOnUse">
<stop stop-color="#BB173F"/>
<stop offset="1" stop-color="#D9D9D9"/>
</linearGradient>
<linearGradient id="paint17_linear_254_2" x1="156.156" y1="51.7118" x2="156.156" y2="73.7971" gradientUnits="userSpaceOnUse">
<stop stop-color="#FFC700"/>
<stop offset="1" stop-color="#FF00D6"/>
</linearGradient>
<linearGradient id="paint18_linear_254_2" x1="70.4848" y1="125.462" x2="64.2497" y2="141.299" gradientUnits="userSpaceOnUse">
<stop stop-color="#FFC700"/>
<stop offset="1" stop-color="#FF00D6"/>
</linearGradient>
<linearGradient id="paint19_linear_254_2" x1="163.21" y1="95.502" x2="156.975" y2="111.339" gradientUnits="userSpaceOnUse">
<stop stop-color="#FFC700"/>
<stop offset="1" stop-color="#FF00D6"/>
</linearGradient>
<linearGradient id="paint20_linear_254_2" x1="224.545" y1="67.1045" x2="219.353" y2="80.2935" gradientUnits="userSpaceOnUse">
<stop stop-color="#FFC700"/>
<stop offset="1" stop-color="#FF00D6"/>
</linearGradient>
<linearGradient id="paint21_linear_254_2" x1="117.667" y1="72.556" x2="111.432" y2="88.3929" gradientUnits="userSpaceOnUse">
<stop stop-color="#FFC700"/>
<stop offset="1" stop-color="#FF00D6"/>
</linearGradient>
<linearGradient id="paint22_linear_254_2" x1="207.033" y1="140.15" x2="205.921" y2="155.339" gradientUnits="userSpaceOnUse">
<stop stop-color="#FFC700"/>
<stop offset="1" stop-color="#FF00D6"/>
</linearGradient>
<linearGradient id="paint23_linear_254_2" x1="257.226" y1="137.253" x2="246.284" y2="152.083" gradientUnits="userSpaceOnUse">
<stop stop-color="#FFC700"/>
<stop offset="1" stop-color="#FF00D6"/>
</linearGradient>
<linearGradient id="paint24_linear_254_2" x1="164.674" y1="153.141" x2="156.265" y2="164.537" gradientUnits="userSpaceOnUse">
<stop stop-color="#FFC700"/>
<stop offset="1" stop-color="#FF00D6"/>
</linearGradient>
</defs>
</svg>
