<svg width="1168" height="608" viewBox="0 0 1168 608" fill="none" xmlns="http://www.w3.org/2000/svg">
<rect x="4" y="1.03528" width="1160" height="599.465" fill="url(#paint0_linear_13_42)"/>
<g filter="url(#filter0_d_13_42)">
<path d="M227 1.03529C227 45.3757 190.511 86.6731 145.5 86.6731C100.489 86.6731 61.5 45.3757 61.5 1.03529C125.5 1.03528 100.489 1.03528 145.5 1.03528C190.511 1.03528 175.5 1.03528 227 1.03529Z" fill="white" fill-opacity="0.4"/>
<ellipse cx="313" cy="213.524" rx="25" ry="26.2266" fill="white" fill-opacity="0.4"/>
<ellipse cx="442" cy="280.964" rx="19" ry="19.8037" fill="white" fill-opacity="0.4"/>
<ellipse cx="655" cy="348.404" rx="19" ry="19.8037" fill="white" fill-opacity="0.4"/>
<ellipse cx="846" cy="219.947" rx="19" ry="19.8037" fill="white" fill-opacity="0.4"/>
<ellipse cx="1062.5" cy="482.213" rx="29.5" ry="30.5085" fill="white" fill-opacity="0.4"/>
<ellipse cx="563.5" cy="493.453" rx="62.5" ry="64.2284" fill="white" fill-opacity="0.4"/>
<ellipse cx="654.5" cy="193.72" rx="51.5" ry="54.5941" fill="white" fill-opacity="0.4"/>
<ellipse cx="981" cy="338.769" rx="50" ry="52.9884" fill="white" fill-opacity="0.4"/>
<path d="M971 599.965C936.5 599.965 948.614 599.965 921 599.965C893.386 599.965 915.5 599.965 871 599.965C871 570.7 893.386 546.976 921 546.976C948.614 546.976 971 570.7 971 599.965Z" fill="white" fill-opacity="0.4"/>
<path d="M53.9999 247.779C53.9999 277.044 31.6142 300.768 3.99994 300.768C4.00042 265.442 3.99951 277.044 3.99951 247.779C3.99951 218.515 3.99994 220.482 3.99994 194.791C31.6142 194.791 53.9999 218.515 53.9999 247.779Z" fill="white" fill-opacity="0.4"/>
<path d="M877 0.500048C877 29.7647 854.614 53.4885 827 53.4885C799.386 53.4885 777 29.7647 777 0.500048C816.5 0.500003 799.386 0.500016 827 0.500016C854.614 0.500016 852.5 0.500011 877 0.500048Z" fill="white" fill-opacity="0.4"/>
<ellipse cx="145.5" cy="429.224" rx="41.5" ry="42.8189" fill="white" fill-opacity="0.4"/>
<ellipse cx="366" cy="415.308" rx="28" ry="28.9028" fill="white" fill-opacity="0.4"/>
<ellipse cx="1030.5" cy="92.5607" rx="27.5" ry="28.3675" fill="white" fill-opacity="0.4"/>
<ellipse cx="821" cy="466.691" rx="22" ry="22.4799" fill="white" fill-opacity="0.4"/>
<ellipse cx="62" cy="540.553" rx="22" ry="22.4799" fill="white" fill-opacity="0.4"/>
<path d="M1163.5 285.246C1163.5 300.913 1163.5 276.682 1163.5 313.613C1148.31 313.613 1136 300.913 1136 285.246C1136 269.579 1148.31 256.878 1163.5 256.878C1163.5 275.076 1163.5 269.579 1163.5 285.246Z" fill="white" fill-opacity="0.4"/>
<ellipse cx="500.5" cy="69.0103" rx="27.5" ry="28.3675" fill="white" fill-opacity="0.4"/>
<ellipse cx="140" cy="181.945" rx="22" ry="22.4799" fill="white" fill-opacity="0.4"/>
<ellipse cx="267.5" cy="526.637" rx="13.5" ry="13.9161" fill="white" fill-opacity="0.4"/>
</g>
<defs>
<filter id="filter0_d_13_42" x="-0.000488281" y="0.500015" width="1167.5" height="607.465" filterUnits="userSpaceOnUse" color-interpolation-filters="sRGB">
<feFlood flood-opacity="0" result="BackgroundImageFix"/>
<feColorMatrix in="SourceAlpha" type="matrix" values="0 0 0 0 0 0 0 0 0 0 0 0 0 0 0 0 0 0 127 0" result="hardAlpha"/>
<feOffset dy="4"/>
<feGaussianBlur stdDeviation="2"/>
<feComposite in2="hardAlpha" operator="out"/>
<feColorMatrix type="matrix" values="0 0 0 0 0 0 0 0 0 0 0 0 0 0 0 0 0 0 0.25 0"/>
<feBlend mode="normal" in2="BackgroundImageFix" result="effect1_dropShadow_13_42"/>
<feBlend mode="normal" in="SourceGraphic" in2="effect1_dropShadow_13_42" result="shape"/>
</filter>
<linearGradient id="paint0_linear_13_42" x1="584" y1="1.03528" x2="584" y2="600.5" gradientUnits="userSpaceOnUse">
<stop stop-color="#F80077"/>
<stop offset="1" stop-color="#FFCB67"/>
</linearGradient>
</defs>
</svg>
